<?xml version="1.0" encoding="UTF-8"?>
<svg version="1.1" xmlns="http://www.w3.org/2000/svg" width="670" height="341">
<path d="M0 0 C-0.56565571 3.89750581 -1.70463998 6.42116217 -3.875 9.6875 C-6.94503561 14.59512904 -8.6410749 19.39741406 -10 25 C-9.113125 25.433125 -8.22625 25.86625 -7.3125 26.3125 C-4.44390719 27.7738586 -1.6664458 29.19622784 1 31 C1 31.66 1 32.32 1 33 C1.804375 33.268125 2.60875 33.53625 3.4375 33.8125 C4.283125 34.204375 5.12875 34.59625 6 35 C6.33 35.99 6.66 36.98 7 38 C7.598125 38.28875 8.19625 38.5775 8.8125 38.875 C14.47915359 41.78927899 17.1229151 48.59512486 20 54 C20.35191406 54.59296875 20.70382812 55.1859375 21.06640625 55.796875 C29.087548 70.01474195 29.54362044 87.26264104 27 103 C28.33611328 102.93619141 28.33611328 102.93619141 29.69921875 102.87109375 C33.08986034 103.00350934 34.81897735 103.55848458 37.8125 105.0625 C42.60607498 107.37124224 47.44484737 109.44502014 52.375 111.4375 C58.68312878 114.00231292 64.87440118 116.74853796 71.0390625 119.64453125 C75.29605242 121.5933116 79.62990111 123.32298688 84 125 C84 125.66 84 126.32 84 127 C84.928125 127.103125 85.85625 127.20625 86.8125 127.3125 C90 128 90 128 91.9375 129.25 C93 131 93 131 92.71484375 133.16015625 C91.85541573 136.57438669 90.78143775 139.86186539 89.625 143.1875 C88.99464844 145.03408203 88.99464844 145.03408203 88.3515625 146.91796875 C87 150 87 150 84 152 C76.67630113 151.86684184 70.60120148 148.98154267 64 146 C64 145.34 64 144.68 64 144 C63.0925 143.95875 62.185 143.9175 61.25 143.875 C56.36550744 143.19413134 52.35960175 140.7989682 48.03515625 138.54296875 C45.4250083 137.21605956 42.84954134 136.06378303 40.125 135 C39.33480469 134.68933594 38.54460937 134.37867188 37.73046875 134.05859375 C35.5907958 133.22904959 33.44661724 132.41112523 31.30078125 131.59765625 C30.01262249 131.0869411 28.72485971 130.57522599 27.4375 130.0625 C25.64119141 129.36833984 25.64119141 129.36833984 23.80859375 128.66015625 C21 127 21 127 20.09765625 124.30859375 C20.06542969 123.54675781 20.03320312 122.78492188 20 122 C15.74542159 126.11733394 11.87046827 130.51887266 7.98828125 134.98828125 C7.33214844 135.65214844 6.67601562 136.31601563 6 137 C5.34 137 4.68 137 4 137 C3.67 137.99 3.34 138.98 3 140 C-14.55455309 153.51902365 -33.51529889 156.5019266 -55.25878906 153.70996094 C-67.6576336 151.442116 -82.11016652 142.47881683 -90.5 133.25 C-92 131 -92 131 -92 129 C-92.99 128.67 -93.98 128.34 -95 128 C-103.49836528 117.01006854 -106.87096819 104.53742868 -109 91 C-109.50789063 91.47050781 -110.01578125 91.94101563 -110.5390625 92.42578125 C-118.33783784 99.47972973 -118.33783784 99.47972973 -123 101 C-128.26017959 99.88616416 -130.67882104 97.65454468 -134.125 93.625 C-137.59868359 89.58969011 -137.59868359 89.58969011 -141.3046875 85.7734375 C-143 84 -143 84 -143 82 C-143.99 81.67 -144.98 81.34 -146 81 C-149.24785197 78.06723815 -151.61392035 75.0509946 -153.125 70.9375 C-152.95290495 66.8932664 -151.55683402 65.09511486 -149 62 C-147.37064759 60.62131719 -145.70250393 59.28725907 -144 58 C-143.154375 57.13375 -142.30875 56.2675 -141.4375 55.375 C-139.26881521 53.26192251 -137.68504369 52.24662743 -135 51 C-134.67 50.34 -134.34 49.68 -134 49 C-130.38840507 47.93293786 -128.64099928 47.700867 -125.1875 49.3125 C-123 51 -123 51 -122 53 C-119.03 53 -116.06 53 -113 53 C-112.67 53.99 -112.34 54.98 -112 56 C-111.195625 55.54625 -110.39125 55.0925 -109.5625 54.625 C-105.43327617 52.7414944 -101.43827566 51.83834096 -97 51 C-96.95875 50.319375 -96.9175 49.63875 -96.875 48.9375 C-95.64701039 44.81496347 -93.15076207 41.90003829 -90 39 C-89.34 39 -88.68 39 -88 39 C-87.67 38.01 -87.34 37.02 -87 36 C-86.34 36 -85.68 36 -85 36 C-84.67 35.01 -84.34 34.02 -84 33 C-83.34 33 -82.68 33 -82 33 C-82 32.34 -82 31.68 -82 31 C-80.35 30.67 -78.7 30.34 -77 30 C-77 29.34 -77 28.68 -77 28 C-73.91190305 26.23537317 -72.76687864 26 -69 26 C-68.773125 25.4225 -68.54625 24.845 -68.3125 24.25 C-66.03628439 20.3479161 -62.23439659 17.53978058 -58 16 C-52.77647059 15.56470588 -52.77647059 15.56470588 -50.1953125 17.01171875 C-47.29706773 18.3164446 -45.04190353 18.15788866 -41.875 18.0625 C-37.57629652 17.94229017 -33.93260247 18.18752014 -29.75 19.125 C-27.35264058 19.55753344 -27.35264058 19.55753344 -25 19 C-22.26579608 16.6927459 -20.1787312 14.25778676 -18.0078125 11.41796875 C-16.07002474 9.0843294 -14.78648539 8.08085644 -12 7 C-12 6.34 -12 5.68 -12 5 C-10.68 4.67 -9.36 4.34 -8 4 C-8 3.34 -8 2.68 -8 2 C-4.77208445 -0.1519437 -3.71599191 -0.20086443 0 0 Z M-36 32 C-35.67 34.31 -35.34 36.62 -35 39 C-33.25372522 36.38058783 -32.61277612 34.96175123 -32 32 C-33.32 32 -34.64 32 -36 32 Z M-14 39 C-15.23758822 44.76558955 -15.14754408 50.44728158 -15.125 56.3125 C-15.12886719 57.30701172 -15.13273438 58.30152344 -15.13671875 59.32617188 C-15.12588635 67.57504399 -14.87674576 75.20196417 -12 83 C-11.58430431 84.34999213 -11.17879019 85.70314422 -10.78125 87.05859375 C-10.57113281 87.77466797 -10.36101562 88.49074219 -10.14453125 89.22851562 C-9.93183594 89.95748047 -9.71914063 90.68644531 -9.5 91.4375 C-9.28730469 92.16259766 -9.07460938 92.88769531 -8.85546875 93.63476562 C-8.43440195 95.07233419 -8.01502111 96.51039776 -7.59741211 97.94897461 C-7.04263072 99.8536409 -6.47684724 101.75509314 -5.91015625 103.65625 C-5.05656999 106.79217204 -4.4405639 109.85388238 -3.9375 113.0625 C-3.78152344 114.04347656 -3.62554687 115.02445312 -3.46484375 116.03515625 C-3.31144531 117.01355469 -3.15804687 117.99195313 -3 119 C-2.66854616 121.00031234 -2.33574215 123.00040296 -2 125 C3.4747986 119.67727914 7.38186127 114.91761439 10.125 107.75 C10.5118396 106.74876099 10.5118396 106.74876099 10.90649414 105.72729492 C16.77271095 90.22385627 15.01023123 76.06616179 8.5 60.953125 C6.25764673 56.53849199 3.51447484 52.50562226 0 49 C-0.66 49 -1.32 49 -2 49 C-2.2475 48.40703125 -2.495 47.8140625 -2.75 47.203125 C-4.18968863 44.6656738 -5.65151493 43.45955898 -8 41.75 C-8.70125 41.22921875 -9.4025 40.7084375 -10.125 40.171875 C-11.91415121 38.82333369 -11.91415121 38.82333369 -14 39 Z M-74.875 44.3125 C-75.92300781 45.23482422 -75.92300781 45.23482422 -76.9921875 46.17578125 C-78.71412881 47.74026878 -80.37333569 49.33752861 -82 51 C-75.53205867 52.51233701 -69.64409958 53.21432579 -63 53 C-63.78375 51.948125 -64.5675 50.89625 -65.375 49.8125 C-67.40508579 46.98303198 -68.89112979 44.32661064 -70 41 C-71.9558535 41 -73.49475662 43.09151547 -74.875 44.3125 Z M-91 62 C-96.29625992 80.48694499 -96.75646801 97.50245849 -87.4609375 114.5 C-86.97882813 115.325 -86.49671875 116.15 -86 117 C-85.34 117 -84.68 117 -84 117 C-83.814375 117.680625 -83.62875 118.36125 -83.4375 119.0625 C-79.28418532 127.54970827 -69.76804211 133.9780049 -61 137 C-60.01 137 -59.02 137 -58 137 C-57.34525592 135.31593731 -56.70166594 133.62753664 -56.0625 131.9375 C-55.70285156 130.99777344 -55.34320313 130.05804688 -54.97265625 129.08984375 C-53.13882914 123.26431266 -52.86244709 117.57560924 -52.875 111.5 C-52.87242187 110.2521875 -52.86984375 109.004375 -52.8671875 107.71875 C-53.30999245 95.32021137 -58.05940035 83.37527767 -66.5625 74.25 C-67.366875 73.5075 -68.17125 72.765 -69 72 C-69.61875 71.319375 -70.2375 70.63875 -70.875 69.9375 C-76.57349228 64.74181586 -83.28207247 62 -91 62 Z M-29 126 C-29.67408308 127.26691507 -30.33900497 128.53870749 -31 129.8125 C-31.37125 130.52019531 -31.7425 131.22789062 -32.125 131.95703125 C-33.19685358 134.08920729 -33.19685358 134.08920729 -33 137 C-33.66 137 -34.32 137 -35 137 C-35.33 138.32 -35.66 139.64 -36 141 C-34.54119891 140.85892253 -33.08296449 140.71197585 -31.625 140.5625 C-30.81289063 140.48128906 -30.00078125 140.40007812 -29.1640625 140.31640625 C-26.95727195 140.10909886 -26.95727195 140.10909886 -25 139 C-25.14084796 137.20793453 -25.28783701 135.41635083 -25.4375 133.625 C-25.51871094 132.62726563 -25.59992188 131.62953125 -25.68359375 130.6015625 C-25.84965626 128.02072387 -25.84965626 128.02072387 -27 126 C-27.66 126 -28.32 126 -29 126 Z " fill="#CADDE5" transform="translate(376,19)"/>
<path d="M0 0 C7.65028963 -0.04657662 15.30056434 -0.08199682 22.95096397 -0.10362434 C26.5043073 -0.1140105 30.0575528 -0.12807377 33.61083984 -0.15087891 C37.70671466 -0.17699843 41.80248856 -0.18651545 45.8984375 -0.1953125 C47.1592514 -0.20563507 48.42006531 -0.21595764 49.71908569 -0.22659302 C59.9237889 -0.22787711 71.69228349 0.02179106 79.5703125 7.48828125 C83.986223 12.57288677 84.29166546 16.74084271 84.21484375 23.2109375 C83.80789735 28.49384172 82.06593816 31.77007136 78.5625 35.8125 C76.36091926 37.69189819 74.57902727 38.78988317 72 40 C72.79664062 40.52787109 72.79664062 40.52787109 73.609375 41.06640625 C83.12389196 47.71615077 84.8072254 54.95306738 87 66 C89.64 66.66 92.28 67.32 95 68 C95.78091106 76.93709328 95.78091106 76.93709328 92.75 81.0625 C87.61176793 84.68261805 82.33615666 84.21451221 76.25 84.25 C75.38117188 84.270625 74.51234375 84.29125 73.6171875 84.3125 C66.79945114 84.35344737 60.72497439 83.65326454 55.625 78.6875 C52.77695742 73.97727574 51.91099661 69.51178713 51.125 64.125 C50.29845763 59.00043728 49.32823584 54.11354991 46 50 C44.03679517 48.61305927 42.04021102 47.27095113 40 46 C40.06018061 48.41926039 40.14722217 50.83248672 40.25 53.25 C40.26417969 53.93191406 40.27835938 54.61382812 40.29296875 55.31640625 C40.45977076 58.75252763 40.74545362 60.67868735 42.90625 63.40625 C44.87616469 64.9057373 46.72783554 66.02621523 49 67 C49.36438449 73.80184379 48.6696773 75.88086054 46 83 C30.82 83 15.64 83 0 83 C-1.61312338 78.16062987 -2.24163445 75.90701244 -2.125 71.125 C-2.10695312 70.15820312 -2.08890625 69.19140625 -2.0703125 68.1953125 C-2.04710937 67.47085938 -2.02390625 66.74640625 -2 66 C-0.2421875 65.4140625 1.515625 64.828125 3.2734375 64.2421875 C5.94185016 62.3223793 6.1637673 60.1357037 7 57 C7.16982199 54.46154529 7.23839241 51.9152103 7.23046875 49.37109375 C7.23001053 48.65897232 7.22955231 47.94685089 7.2290802 47.21315002 C7.22607512 45.71638307 7.21824149 44.21961875 7.20581055 42.72290039 C7.18752648 40.44080443 7.1853014 38.15911482 7.18554688 35.87695312 C7.25619638 27.37686501 7.25619638 27.37686501 6 19 C4.865625 18.690625 3.73125 18.38125 2.5625 18.0625 C-1 17 -1 17 -2 16 C-2.16796875 14.1796875 -2.16796875 14.1796875 -2.1875 11.875 C-2.20167969 11.12992188 -2.21585938 10.38484375 -2.23046875 9.6171875 C-1.93481616 6.2597767 -0.95288276 3.22568635 0 0 Z M40 14 C39.72258755 16.23035297 39.72258755 16.23035297 39.8046875 18.7890625 C39.81113281 19.73007813 39.81757812 20.67109375 39.82421875 21.640625 C39.84097656 22.62546875 39.85773438 23.6103125 39.875 24.625 C39.88402344 25.61757812 39.89304688 26.61015625 39.90234375 27.6328125 C39.92595884 30.08878134 39.95889201 32.54427168 40 35 C42.3888839 35.65608942 42.3888839 35.65608942 45 36 C48.14438925 33.64170806 49.29539877 31.78979693 50 28 C50.36879773 22.72533482 50.6080142 17.75579061 48 13 C46.94689723 11.72996677 46.94689723 11.72996677 44.5625 11.8125 C41.83265325 11.73160017 41.83265325 11.73160017 40 14 Z " fill="#00A7AC" transform="translate(49,196)"/>
<path d="M0 0 C0.66 -0.99 1.32 -1.98 2 -3 C4.64453125 -3.46875 4.64453125 -3.46875 7.8125 -3.5 C8.85019531 -3.5309375 9.88789063 -3.561875 10.95703125 -3.59375 C15.09779998 -2.78579513 16.46337294 -1.33626431 19 2 C20.1796875 5.55859375 20.1796875 5.55859375 20.875 9.4375 C21.11992187 10.71496094 21.36484375 11.99242187 21.6171875 13.30859375 C21.9864951 16.86977418 21.91789059 19.55017527 21 23 C17.62876262 25.3177257 13.36857191 25.70976585 9.328125 25.65625 C5.33032031 24.52935203 3.47252573 21.36293009 0.97265625 18.20703125 C-2.08866203 14.78199199 -4.54132649 14.00679725 -9 13 C-14.02097205 13.10041944 -17.12018463 14.87927894 -21 18 C-26.56768569 25.37342159 -26.74483822 31.97373679 -26 41 C-25.01002562 44.24441602 -23.62762355 47.03890173 -22 50 C-21.67 50.99 -21.34 51.98 -21 53 C-18.60931266 54.10636395 -18.60931266 54.10636395 -16 55 C-15.01 55.66 -14.02 56.32 -13 57 C-10.48415109 57.24150773 -10.48415109 57.24150773 -7.8125 57.125 C-6.91144531 57.10695313 -6.01039063 57.08890625 -5.08203125 57.0703125 C-4.39496094 57.04710937 -3.70789063 57.02390625 -3 57 C-2.67 55.02 -2.34 53.04 -2 51 C-5.50538557 49.03698408 -9.13351728 48.04097612 -13 47 C-13.34976248 41.28721279 -12.31372143 38.0586088 -10 33 C-4.80393014 32.90104174 0.39158998 32.82849007 5.58837891 32.78027344 C7.35572872 32.7601715 9.12301213 32.73288528 10.89013672 32.69824219 C13.43213285 32.64965991 15.97324896 32.62701774 18.515625 32.609375 C19.69865204 32.57840729 19.69865204 32.57840729 20.90557861 32.54681396 C24.47124221 32.54535911 26.57385197 32.69190312 29.50292969 34.80957031 C31.6905601 38.01038898 31.46588674 40.20635085 31 44 C29.74216683 46.63545998 28.64407168 48.45381609 26.41772461 50.34179688 C24.52493532 52.55564651 24.63138129 53.89700334 24.62890625 56.78125 C24.61150391 57.70550781 24.59410156 58.62976563 24.57617188 59.58203125 C24.56705736 61.52732937 24.56184896 63.47264971 24.56054688 65.41796875 C24.54185547 66.34222656 24.52316406 67.26648438 24.50390625 68.21875 C24.50205322 69.06373047 24.5002002 69.90871094 24.49829102 70.77929688 C24 73 24 73 22.15600586 74.73632812 C18.03937208 77.14915753 14.69150108 77.1617759 10 77 C8.824375 76.62875 8.824375 76.62875 7.625 76.25 C3.91740528 75.89689574 1.46753434 77.36444572 -1.81640625 78.9921875 C-10.9058127 83.18729817 -23.84474794 81.76179334 -33.19140625 79.03515625 C-43.8418371 75.10975406 -52.45807504 69.21923431 -57.875 59.0625 C-63.01998971 47.61186634 -64.32440665 32.94359932 -60 21 C-57.29583552 14.51000525 -54.39971943 9.55976307 -49 5 C-48.34 5 -47.68 5 -47 5 C-47 4.34 -47 3.68 -47 3 C-31.97124873 -4.23811183 -15.72173318 -7.86086659 0 0 Z " fill="#010922" transform="translate(340,199)"/>
<path d="M0 0 C-0.86806129 2.74886074 -1.76156602 5.45515299 -2.91796875 8.09765625 C-13.61753741 32.65337129 -11.75361718 61.87178515 -4 87 C-3.67668701 87.62624268 -3.35337402 88.25248535 -3.02026367 88.89770508 C1.40169073 98.00932253 4.51837386 114.18238212 2 124 C-0.611519 126.93599631 -3.33885874 128.61220277 -7 130 C-7.66 130 -8.32 130 -9 130 C-9.33 130.99 -9.66 131.98 -10 133 C-11.65 133 -13.3 133 -15 133 C-15.27714844 131.79601562 -15.55429687 130.59203125 -15.83984375 129.3515625 C-16.20559679 127.77601093 -16.57148945 126.20049177 -16.9375 124.625 C-17.11990234 123.8309375 -17.30230469 123.036875 -17.49023438 122.21875 C-17.75610352 121.07792969 -17.75610352 121.07792969 -18.02734375 119.9140625 C-18.18968506 119.2123291 -18.35202637 118.5105957 -18.51928711 117.78759766 C-18.9588074 115.91605426 -18.9588074 115.91605426 -20 114 C-20.66 114 -21.32 114 -22 114 C-22.26216309 114.55985596 -22.52432617 115.11971191 -22.79443359 115.6965332 C-23.98546548 118.23636525 -25.18018931 120.77444356 -26.375 123.3125 C-26.7875 124.19357422 -27.2 125.07464844 -27.625 125.98242188 C-28.22441406 127.25375977 -28.22441406 127.25375977 -28.8359375 128.55078125 C-29.20251465 129.33106689 -29.5690918 130.11135254 -29.94677734 130.9152832 C-31 133 -31 133 -33 136 C-35.62697064 136.22137393 -38.00893964 136.28162025 -40.625 136.1875 C-41.33140625 136.17396484 -42.0378125 136.16042969 -42.765625 136.14648438 C-44.51074128 136.1111104 -46.25546608 136.05730221 -48 136 C-49.078125 134.19921875 -49.078125 134.19921875 -50 132 C-49.33332727 130.29998454 -48.65038683 128.60349365 -47.86474609 126.95507812 C-42.59979551 115.05171158 -42.81017417 96.34824164 -46.5625 84.125 C-52.34639555 70.44659438 -60.43199215 61.0491219 -74.046875 55.12890625 C-78.18858045 53.54563525 -81.54412968 52.87526908 -85.984375 52.90234375 C-86.91894531 52.90556641 -87.85351562 52.90878906 -88.81640625 52.91210938 C-89.78449219 52.92048828 -90.75257813 52.92886719 -91.75 52.9375 C-92.73355469 52.94201172 -93.71710938 52.94652344 -94.73046875 52.95117188 C-97.15370791 52.96293517 -99.57682273 52.97937316 -102 53 C-101.67 52.01 -101.34 51.02 -101 50 C-93.54786451 46.61033486 -85.34593575 46.52356773 -77.3125 46.625 C-75.60610352 46.63587646 -75.60610352 46.63587646 -73.86523438 46.64697266 C-64.89912082 46.79335299 -56.70864308 47.93092523 -48 50 C-45.27527023 50.44046384 -42.55087806 50.87470103 -39.8203125 51.27734375 C-37.33266972 52.26492726 -37.03787129 53.61102598 -36 56 C-35.34 56.33 -34.68 56.66 -34 57 C-32.87044557 61.29230685 -32.07174617 65.56608606 -31.34765625 69.9453125 C-31.2283374 70.64325928 -31.10901855 71.34120605 -30.98608398 72.06030273 C-30.75003274 73.45091428 -30.52634791 74.84369651 -30.31665039 76.23852539 C-29.50698468 80.98085312 -28.0733267 84.29258545 -25 88 C-21.83073436 88.50169415 -21.83073436 88.50169415 -19 88 C-18.67 84.7 -18.34 81.4 -18 78 C-19.485 77.505 -19.485 77.505 -21 77 C-22.31640625 74.75 -22.31640625 74.75 -23.5625 72 C-25.02364577 68.29032372 -25.02364577 68.29032372 -28 66 C-28.7013284 63.67684969 -29.36485174 61.34210921 -30 59 C-30.37125 58.319375 -30.7425 57.63875 -31.125 56.9375 C-32.70702258 53.43444999 -32.38783512 50.05623181 -31.08203125 46.5 C-30.66308594 45.675 -30.24414062 44.85 -29.8125 44 C-27.74903948 39.73396925 -26.07888596 35.49007791 -24.5625 31 C-21.17275121 21.3676393 -12.38549763 0 0 0 Z " fill="#070D26" transform="translate(369,26)"/>
<path d="M0 0 C3.58789867 0.38732997 5.02773819 1.71593832 7.75 4.046875 C8.575 4.74296875 9.4 5.4390625 10.25 6.15625 C11.075 6.86265625 11.9 7.5690625 12.75 8.296875 C13.61109375 8.95042969 14.4721875 9.60398437 15.359375 10.27734375 C17.77158459 12.31510904 19.29900705 14.21388333 21 16.859375 C21.50015625 17.62378906 22.0003125 18.38820313 22.515625 19.17578125 C23.75 21.296875 23.75 21.296875 24.75 24.296875 C25.41 24.296875 26.07 24.296875 26.75 24.296875 C33.87156164 42.94858406 33.87156164 42.94858406 33.8828125 51.24609375 C33.88410156 52.17744141 33.88539063 53.10878906 33.88671875 54.06835938 C33.88285156 55.03064453 33.87898437 55.99292969 33.875 56.984375 C33.87886719 57.92732422 33.88273438 58.87027344 33.88671875 59.84179688 C33.87818402 66.05081055 33.48829183 72.13239044 32.75 78.296875 C34.4 78.296875 36.05 78.296875 37.75 78.296875 C37.75 77.636875 37.75 76.976875 37.75 76.296875 C41.5563457 76.96858306 45.10206816 78.02434064 48.75 79.296875 C48.75 79.956875 48.75 80.616875 48.75 81.296875 C49.62011719 81.40257812 50.49023438 81.50828125 51.38671875 81.6171875 C54.90764241 82.32873305 57.40964634 83.47515857 60.5625 85.171875 C64.83730892 87.39098049 68.92458762 89.11398544 73.51953125 90.51171875 C77.01205369 91.74113558 80.22372769 93.47615058 83.48828125 95.2109375 C85.58583146 96.21805142 87.47892476 96.82914783 89.75 97.296875 C89.75 97.956875 89.75 98.616875 89.75 99.296875 C90.306875 99.420625 90.86375 99.544375 91.4375 99.671875 C93.97114364 100.35664355 96.32921032 101.28821263 98.75 102.296875 C99.04958164 106.51406266 98.135802 109.19831164 96.3125 112.984375 C95.86003906 113.93699219 95.40757812 114.88960938 94.94140625 115.87109375 C94.21569071 117.34869818 93.48620349 118.82446802 92.75 120.296875 C85.68148818 120.41088326 80.5698742 118.49082381 74.37792969 115.17333984 C67.44246791 111.49487327 60.13656337 108.91574747 52.75 106.296875 C52.75 105.636875 52.75 104.976875 52.75 104.296875 C52.13511719 104.16410156 51.52023437 104.03132813 50.88671875 103.89453125 C50.07847656 103.71792969 49.27023437 103.54132813 48.4375 103.359375 C47.63699219 103.18535156 46.83648437 103.01132813 46.01171875 102.83203125 C43.75 102.296875 43.75 102.296875 40.75 101.296875 C40.75 100.636875 40.75 99.976875 40.75 99.296875 C38.831875 98.8328125 38.831875 98.8328125 36.875 98.359375 C34.64898325 97.82082256 32.80260001 97.323175 30.75 96.296875 C30.75 94.646875 30.75 92.996875 30.75 91.296875 C26.81772056 91.84739412 24.64995644 92.21858618 22.0546875 95.328125 C21.03944954 96.89944808 20.05579881 98.49176298 19.109375 100.10546875 C17.81859285 102.18629859 16.62485138 103.72945893 14.75 105.296875 C14.09 105.296875 13.43 105.296875 12.75 105.296875 C12.75 105.956875 12.75 106.616875 12.75 107.296875 C10.40688579 109.03483376 8.06827788 110.64898964 5.625 112.234375 C4.95984375 112.67716797 4.2946875 113.11996094 3.609375 113.57617188 C-11.63828884 123.60674289 -30.39583834 125.83914067 -48.25 122.296875 C-48.25 121.636875 -48.25 120.976875 -48.25 120.296875 C-49.508125 120.255625 -50.76625 120.214375 -52.0625 120.171875 C-65.12669537 118.65659215 -75.56264891 108.00846277 -83.66015625 98.38671875 C-91.7870538 87.70394187 -96.32698358 76.56140167 -96.5 63.109375 C-96.52578125 61.89894531 -96.5515625 60.68851563 -96.578125 59.44140625 C-96.25 56.296875 -96.25 56.296875 -94.859375 54.37109375 C-93.25 53.296875 -93.25 53.296875 -91.25 53.296875 C-92.51974972 48.88165391 -92.51974972 48.88165391 -95.25 45.296875 C-95.26171875 42.73046875 -95.26171875 42.73046875 -94.9375 39.734375 C-94.78861328 38.24744141 -94.78861328 38.24744141 -94.63671875 36.73046875 C-94.25 34.296875 -94.25 34.296875 -93.25 33.296875 C-91.73071962 33.22507536 -90.20832518 33.21295493 -88.6875 33.234375 C-87.86121094 33.24339844 -87.03492188 33.25242188 -86.18359375 33.26171875 C-85.54550781 33.27332031 -84.90742188 33.28492188 -84.25 33.296875 C-84.00369022 37.81255436 -84.04774602 41.15568677 -85.75 45.359375 C-89.70441273 56.35226397 -87.29907297 67.73530703 -83.25 78.296875 C-82.98445313 79.07289062 -82.71890625 79.84890625 -82.4453125 80.6484375 C-78.09524837 92.0414626 -70.06979264 100.95062452 -59.25 106.296875 C-57.98349609 107.06257813 -57.98349609 107.06257813 -56.69140625 107.84375 C-54.64416805 109.06226618 -52.70229211 110.03511136 -50.5 110.921875 C-47.25 112.296875 -47.25 112.296875 -46.25 113.296875 C-43.72403741 113.53341023 -41.21892793 113.71861192 -38.6875 113.859375 C-37.97658203 113.90255859 -37.26566406 113.94574219 -36.53320312 113.99023438 C-34.77238088 114.09659277 -33.0112168 114.19726346 -31.25 114.296875 C-31.01539063 113.48992187 -30.78078125 112.68296875 -30.5390625 111.8515625 C-28.94999965 107.4696013 -26.84350886 103.51225071 -24.625 99.421875 C-24.20476562 98.638125 -23.78453125 97.854375 -23.3515625 97.046875 C-22.3218978 95.12795443 -21.28652433 93.21209897 -20.25 91.296875 C-18.765 91.791875 -18.765 91.791875 -17.25 92.296875 C-16.36048375 94.76312574 -15.67195285 97.07433573 -15.0625 99.609375 C-14.79663086 100.62547852 -14.79663086 100.62547852 -14.52539062 101.66210938 C-13.67809479 105.00876434 -13.25 107.82139735 -13.25 111.296875 C-9.38813441 110.77500127 -7.91546438 110.02799122 -5.25 107.296875 C-3.92169884 106.36311874 -2.56595419 105.46736612 -1.1875 104.609375 C-0.49527344 104.17238281 0.19695312 103.73539062 0.91015625 103.28515625 C2.75 102.296875 2.75 102.296875 4.75 102.296875 C4.75 101.636875 4.75 100.976875 4.75 100.296875 C5.90705922 99.10578462 7.07043569 97.92022706 8.26367188 96.76538086 C18.43618476 86.71484456 24.07786999 74.98096418 24.49462891 60.59326172 C24.4972876 58.96155029 24.4972876 58.96155029 24.5 57.296875 C24.50306152 56.25934082 24.50612305 55.22180664 24.50927734 54.15283203 C24.30728675 47.11927146 22.69417148 41.64593034 19.75 35.296875 C19.29625 34.100625 18.8425 32.904375 18.375 31.671875 C13.51943432 21.58723859 5.19023462 14.10625015 -4.25 8.296875 C-3.24858739 0.42863306 -3.24858739 0.42863306 0 0 Z M-20.25 97.296875 C-20.92408308 98.56379007 -21.58900497 99.83558249 -22.25 101.109375 C-22.62125 101.81707031 -22.9925 102.52476562 -23.375 103.25390625 C-24.44685358 105.38608229 -24.44685358 105.38608229 -24.25 108.296875 C-24.91 108.296875 -25.57 108.296875 -26.25 108.296875 C-26.58 109.616875 -26.91 110.936875 -27.25 112.296875 C-25.79119891 112.15579753 -24.33296449 112.00885085 -22.875 111.859375 C-22.06289063 111.77816406 -21.25078125 111.69695312 -20.4140625 111.61328125 C-18.20727195 111.40597386 -18.20727195 111.40597386 -16.25 110.296875 C-16.39084796 108.50480953 -16.53783701 106.71322583 -16.6875 104.921875 C-16.76871094 103.92414063 -16.84992188 102.92640625 -16.93359375 101.8984375 C-17.09965626 99.31759887 -17.09965626 99.31759887 -18.25 97.296875 C-18.91 97.296875 -19.57 97.296875 -20.25 97.296875 Z " fill="#0EA6AC" transform="translate(367.25,47.703125)"/>
<path d="M0 0 C6.14694722 4.4755054 9.5168265 9.2769484 10.84375 16.8046875 C11.91472218 26.11619559 11.78175556 35.76066349 6.42578125 43.80078125 C-0.0875171 51.61929852 -7.79780091 55.36764122 -17.91992188 56.47338867 C-30.46289629 57.16771038 -42.11589566 55.82804269 -51.9609375 47.25390625 C-58.93492405 39.95256931 -59.59262552 32.3167439 -59.46508789 22.58642578 C-59.06907435 13.52325143 -56.64982356 7.62697584 -50.0625 1.3125 C-36.89360473 -9.24746319 -13.98451378 -8.57411173 0 0 Z M-25.875 5.25 C-30.70493835 10.07993835 -29.05917801 18.33917453 -29.0625 24.6875 C-29.07474609 25.91533203 -29.08699219 27.14316406 -29.09960938 28.40820312 C-29.10154297 29.59220703 -29.10347656 30.77621094 -29.10546875 31.99609375 C-29.10957764 33.07560303 -29.11368652 34.1551123 -29.11791992 35.26733398 C-28.86523797 38.36986206 -28.3192314 40.49949811 -26.875 43.25 C-25.885 43.91 -24.895 44.57 -23.875 45.25 C-20.70719306 42.65815796 -19.88831046 40.178195 -18.875 36.25 C-18.56448497 32.64245976 -18.55033057 29.05668942 -18.5625 25.4375 C-18.54638672 24.49068359 -18.53027344 23.54386719 -18.51367188 22.56835938 C-18.50933171 16.26209431 -19.48393806 11.08788222 -21.875 5.25 C-23.195 5.25 -24.515 5.25 -25.875 5.25 Z " fill="#00A6AC" transform="translate(208.875,223.75)"/>
<path d="M0 0 C0.93448975 -0.01393799 1.86897949 -0.02787598 2.83178711 -0.04223633 C10.12468494 0.00768394 15.99815014 0.92226425 21.625 5.9375 C22.32625 6.741875 23.0275 7.54625 23.75 8.375 C24.41 9.035 25.07 9.695 25.75 10.375 C27.8742822 17.10976134 28.36303029 23.85849704 28.875 30.875 C28.96136719 31.98359375 29.04773438 33.0921875 29.13671875 34.234375 C29.34722074 36.94751181 29.55148984 39.66096394 29.75 42.375 C30.554375 42.66375 31.35875 42.9525 32.1875 43.25 C34.75 44.375 34.75 44.375 35.75 46.375 C35.73857101 48.33507226 35.64338782 50.29514609 35.5 52.25 C35.43296875 53.29929687 35.3659375 54.34859375 35.296875 55.4296875 C34.6871218 58.71364401 34.09273732 60.02351529 31.75 62.375 C27.46733245 63.08504909 23.13885243 62.64950758 18.8125 62.4375 C17.02295898 62.40172852 17.02295898 62.40172852 15.19726562 62.36523438 C14.05064453 62.31818359 12.90402344 62.27113281 11.72265625 62.22265625 C10.14883179 62.1609021 10.14883179 62.1609021 8.54321289 62.09790039 C4.88845974 61.15202817 3.79751495 59.45503037 1.75 56.375 C1.20730469 56.72433594 0.66460937 57.07367188 0.10546875 57.43359375 C-0.60996094 57.88863281 -1.32539063 58.34367187 -2.0625 58.8125 C-3.12404297 59.49119141 -3.12404297 59.49119141 -4.20703125 60.18359375 C-9.50497089 63.27321438 -15.30501351 62.90997344 -21.25 62.375 C-25.98612843 61.04034223 -28.6235626 59.16206238 -31.6875 55.3125 C-35.17020327 48.76501785 -35.46730708 41.05356575 -33.6015625 33.8828125 C-31.8219167 29.85199082 -29.56619792 27.08582876 -25.48828125 25.12109375 C-16.73697924 22.20399308 -8.29436981 22.16908403 0.75 23.375 C0.42 20.075 0.09 16.775 -0.25 13.375 C-8.19964817 13.58148437 -13.05602877 14.86427834 -19.7421875 19.1953125 C-22.75836942 20.61413951 -24.1314083 20.40728645 -27.25 19.375 C-28.89156736 17.73343264 -28.53815992 15.88284199 -28.625 13.625 C-28.55321061 10.03040283 -28.38045596 8.59397965 -26.5 5.4375 C-18.33692057 0.25708421 -9.41665303 0.09151494 0 0 Z M-6.89453125 32.578125 C-8.66933475 34.93089044 -8.65137978 36.38874068 -8.625 39.3125 C-8.63273437 40.16714844 -8.64046875 41.02179688 -8.6484375 41.90234375 C-8.1819174 44.7975126 -7.16238222 46.19447953 -5.25 48.375 C-3.6 47.715 -1.95 47.055 -0.25 46.375 C-0.05551523 44.25062788 0.13038289 42.12546809 0.3125 40 C0.41691406 38.81664062 0.52132812 37.63328125 0.62890625 36.4140625 C0.99153596 33.45601369 0.99153596 33.45601369 -0.25 31.375 C-3.80614266 31.04165256 -3.80614266 31.04165256 -6.89453125 32.578125 Z " fill="#010922" transform="translate(408.25,217.625)"/>
<path d="M0 0 C0.9075 -0.020625 1.815 -0.04125 2.75 -0.0625 C9.94328346 -0.10395985 15.29403264 1.10337659 21.4375 5.0625 C28.36982136 11.99482136 27.82297275 21.47116621 28.23046875 30.6171875 C28.43960589 34.90089302 28.81289295 39.02704334 29.625 43.25 C31.275 43.58 32.925 43.91 34.625 44.25 C36.04054465 51.04461431 34.82118311 55.66145068 32.625 62.25 C28.207187 62.22722316 23.7919691 62.14994254 19.375 62.0625 C18.12074219 62.05669922 16.86648438 62.05089844 15.57421875 62.04492188 C14.36894531 62.01591797 13.16367187 61.98691406 11.921875 61.95703125 C10.81166992 61.9413208 9.70146484 61.92561035 8.55761719 61.90942383 C4.75432908 61.05422227 3.71359192 59.44287936 1.625 56.25 C1.08230469 56.59933594 0.53960937 56.94867188 -0.01953125 57.30859375 C-0.73496094 57.76363281 -1.45039063 58.21867187 -2.1875 58.6875 C-3.24904297 59.36619141 -3.24904297 59.36619141 -4.33203125 60.05859375 C-9.62997089 63.14821438 -15.43001351 62.78497344 -21.375 62.25 C-26.07549202 60.9253847 -28.73512037 59.03754416 -31.8125 55.25 C-35.01327287 49.10451608 -35.52319446 41.85966306 -33.84375 35.1171875 C-31.7181604 29.78010926 -29.06940522 27.09720261 -24 24.5625 C-16.22612993 21.8884056 -7.37908604 21.64431709 0.625 23.25 C0.295 19.95 -0.035 16.65 -0.375 13.25 C-8.32464817 13.45648437 -13.18102877 14.73927834 -19.8671875 19.0703125 C-22.88336942 20.48913951 -24.2564083 20.28228645 -27.375 19.25 C-28.93485209 17.69014791 -28.61952344 16.16093902 -28.6875 14 C-28.63077893 10.75142965 -28.41309065 9.32300708 -26.875 6.375 C-19.3739606 -0.00088349 -9.38234946 0.05285831 0 0 Z M-7.015625 32.45703125 C-8.7971632 34.8068187 -8.77639151 36.26244111 -8.75 39.1875 C-8.75773437 40.04214844 -8.76546875 40.89679688 -8.7734375 41.77734375 C-8.3069174 44.6725126 -7.28738222 46.06947953 -5.375 48.25 C-2.87947516 47.46869929 -2.87947516 47.46869929 -0.375 46.25 C0.66376383 43.13370851 0.75861625 40.8905571 0.75 37.625 C0.75257813 36.64273438 0.75515625 35.66046875 0.7578125 34.6484375 C0.89505965 32.29774989 0.89505965 32.29774989 -0.375 31.25 C-3.9343309 30.87223001 -3.9343309 30.87223001 -7.015625 32.45703125 Z " fill="#010922" transform="translate(482.375,217.75)"/>
<path d="M0 0 C0.58652344 0.33515625 1.17304688 0.6703125 1.77734375 1.015625 C4.80339711 2.35581032 7.27167772 2.1198024 10.5625 2 C16.66738428 1.77825619 16.66738428 1.77825619 20 4 C21.65549531 4.38499891 23.3222433 4.72793135 25 5 C24.34967443 8.51175807 23.25057517 11.20618254 21 14 C17.88671875 14.140625 17.88671875 14.140625 15 14 C15.39445312 15.80984375 15.39445312 15.80984375 15.796875 17.65625 C16.11598228 19.27055743 16.43361233 20.88515735 16.75 22.5 C17.01490234 23.68722656 17.01490234 23.68722656 17.28515625 24.8984375 C18.33025051 30.44198094 17.76177048 33.38838584 14.9296875 38.24511719 C13.68337096 40.59767058 13.69006154 42.27462327 14.125 44.875 C14.23070312 45.61492187 14.33640625 46.35484375 14.4453125 47.1171875 C14.90189712 49.22086892 14.90189712 49.22086892 17 51 C17.125 54.125 17.125 54.125 17 57 C18.485 57.495 18.485 57.495 20 58 C21.31640625 60.25 21.31640625 60.25 22.5625 63 C24.02364577 66.70967628 24.02364577 66.70967628 27 69 C27.02688151 70.64574566 27.04634123 72.29161413 27.0625 73.9375 C27.07410156 74.85402344 27.08570313 75.77054687 27.09765625 76.71484375 C27 79 27 79 26 80 C23.1875 80.375 23.1875 80.375 20 80 C15.89515044 76.57929203 15.33278662 72.70558657 14.50390625 67.6875 C13.99323538 64.96392201 13.23740047 62.44382422 12.375 59.8125 C11.07464459 55.67619358 10.71855435 52.31549993 11 48 C9.68 47.34 8.36 46.68 7 46 C7 45.01 7 44.02 7 43 C6.31897217 42.91435791 5.63794434 42.82871582 4.9362793 42.74047852 C1.85294757 42.35095243 -1.22977286 41.95678098 -4.3125 41.5625 C-5.38435547 41.42779297 -6.45621094 41.29308594 -7.56054688 41.15429688 C-8.58857422 41.02216797 -9.61660156 40.89003906 -10.67578125 40.75390625 C-12.0975769 40.57323608 -12.0975769 40.57323608 -13.5480957 40.38891602 C-16 40 -16 40 -19 39 C-23.16213406 38.73727922 -27.33047546 38.76844922 -31.5 38.75 C-32.634375 38.729375 -33.76875 38.70875 -34.9375 38.6875 C-42.42827838 38.65313863 -48.89431878 39.61826762 -56 42 C-55.67 44.97 -55.34 47.94 -55 51 C-55.99 51 -56.98 51 -58 51 C-58.28875 50.21625 -58.5775 49.4325 -58.875 48.625 C-59.84912254 45.90328368 -59.84912254 45.90328368 -62 44 C-64.06874034 43.3574765 -64.06874034 43.3574765 -66 43 C-65.360625 43.763125 -64.72125 44.52625 -64.0625 45.3125 C-62 48 -62 48 -61 51 C-59.2051367 52.78097763 -59.2051367 52.78097763 -57.0625 54.5 C-54.49024808 56.62876021 -52.87739237 58.18391145 -51 61 C-51.375 63.6875 -51.375 63.6875 -52 66 C-59.39299232 66.48215167 -65.60744481 64.53625141 -72.3125 61.5 C-80.27648973 54.09163746 -81.07374113 43.2441466 -82 33 C-76.3515625 31.8359375 -76.3515625 31.8359375 -73.1875 33.3125 C-71 35 -71 35 -70 37 C-67.03 37 -64.06 37 -61 37 C-60.67 37.99 -60.34 38.98 -60 40 C-59.195625 39.54625 -58.39125 39.0925 -57.5625 38.625 C-53.43327617 36.7414944 -49.43827566 35.83834096 -45 35 C-44.95875 34.319375 -44.9175 33.63875 -44.875 32.9375 C-43.64701039 28.81496347 -41.15076207 25.90003829 -38 23 C-37.34 23 -36.68 23 -36 23 C-35.505 21.515 -35.505 21.515 -35 20 C-34.34 20 -33.68 20 -33 20 C-32.505 18.515 -32.505 18.515 -32 17 C-31.34 17 -30.68 17 -30 17 C-30 16.34 -30 15.68 -30 15 C-28.35 14.67 -26.7 14.34 -25 14 C-25 13.34 -25 12.68 -25 12 C-21.91190305 10.23537317 -20.76687864 10 -17 10 C-16.773125 9.4225 -16.54625 8.845 -16.3125 8.25 C-12.71679982 2.08594254 -6.89150098 -0.57429175 0 0 Z M-22.875 28.3125 C-23.92300781 29.23482422 -23.92300781 29.23482422 -24.9921875 30.17578125 C-26.71412881 31.74026878 -28.37333569 33.33752861 -30 35 C-23.53205867 36.51233701 -17.64409958 37.21432579 -11 37 C-11.78375 35.948125 -12.5675 34.89625 -13.375 33.8125 C-15.40508579 30.98303198 -16.89112979 28.32661064 -18 25 C-19.9558535 25 -21.49475662 27.09151547 -22.875 28.3125 Z " fill="#E2D0D5" transform="translate(324,35)"/>
<path d="M0 0 C0.90540527 0.04543945 0.90540527 0.04543945 1.82910156 0.09179688 C16.93246828 0.87954191 16.93246828 0.87954191 32.05078125 0.9375 C34 1 34 1 35 2 C35.1038496 3.58816534 35.13852377 5.18091815 35.14526367 6.77246094 C35.15164352 7.79152527 35.15802338 8.8105896 35.16459656 9.86053467 C35.16570938 10.97390198 35.1668222 12.08726929 35.16796875 13.234375 C35.17296135 14.95059052 35.17296135 14.95059052 35.17805481 16.70147705 C35.18313359 19.1361043 35.18546284 21.57073855 35.18530273 24.00537109 C35.18746626 27.69250427 35.20554767 31.37932701 35.22460938 35.06640625 C35.22754787 37.43489482 35.22952961 39.8033848 35.23046875 42.171875 C35.23765427 43.26095154 35.24483978 44.35002808 35.25224304 45.47210693 C35.21741213 57.43729458 34.45882357 69.19113613 27 79 C24.68087242 80.96155284 22.86751145 81.80085885 20 83 C19.25234375 83.35191406 18.5046875 83.70382812 17.734375 84.06640625 C9.44847449 86.89544942 -0.13613026 85.65594417 -8.046875 82.265625 C-11.08693882 80.29566364 -12.67353528 78.26422916 -13.58203125 74.74609375 C-13.65808594 73.98425781 -13.73414063 73.22242188 -13.8125 72.4375 C-13.90144531 71.67308594 -13.99039063 70.90867187 -14.08203125 70.12109375 C-14 68 -14 68 -12 65 C-10.16015625 64.453125 -10.16015625 64.453125 -8.0625 64.25 C-7.02802734 64.13398438 -7.02802734 64.13398438 -5.97265625 64.015625 C-4 64 -4 64 -1 65 C0.1875 68.0625 0.1875 68.0625 1 71 C2.97536745 70.65213292 2.97536745 70.65213292 5 70 C6.17151209 67.65697582 6.14488783 66.2257726 6.17700195 63.61376953 C6.18983719 62.70587677 6.20267242 61.79798401 6.21589661 60.86257935 C6.22328354 59.87925629 6.23067047 58.89593323 6.23828125 57.8828125 C6.246353 56.87411102 6.25442474 55.86540955 6.26274109 54.82614136 C6.27658592 52.68928754 6.28730629 50.55241156 6.29516602 48.41552734 C6.31239421 45.14508305 6.35627897 41.87564547 6.40039062 38.60546875 C6.41051601 36.53125745 6.41903259 34.45703754 6.42578125 32.3828125 C6.44328934 31.4035379 6.46079742 30.42426331 6.47883606 29.41531372 C6.53636267 24.06270925 6.53636267 24.06270925 4.14526367 19.42919922 C1.83863612 17.89249754 -0.37335546 16.87554818 -3 16 C-3.0828413 14.64692538 -3.14000368 13.29227589 -3.1875 11.9375 C-3.22230469 11.18339844 -3.25710937 10.42929688 -3.29296875 9.65234375 C-2.89227545 6.02473375 -1.54089079 3.30421987 0 0 Z " fill="#00A6AC" transform="translate(237,218)"/>
<path d="M0 0 C0.87567627 0.04543945 0.87567627 0.04543945 1.76904297 0.09179688 C4.47090102 0.23049048 7.17294194 0.36526126 9.875 0.5 C10.7928125 0.54769531 11.710625 0.59539062 12.65625 0.64453125 C18.77657459 0.94623739 24.87256353 1.05995861 31 1 C31.66 2.65 32.32 4.3 33 6 C33.94875 5.195625 34.8975 4.39125 35.875 3.5625 C39.89195346 0.15682207 42.5191814 -0.27698859 47.73828125 -0.2265625 C50.77203013 0.07733635 52.64982222 1.09048055 55 3 C56.97573586 6.95147172 56.57649875 11.70415448 56 16 C53.5625 19.125 53.5625 19.125 51 21 C50.505 21.495 50.505 21.495 50 22 C47.66702567 22.04092937 45.33294775 22.04241723 43 22 C42.34 20.02 41.68 18.04 41 16 C38.37777769 18.04318268 36.27456063 19.68598659 35.57128906 23.05175781 C35.47213298 25.42639255 35.51449223 27.75098817 35.625 30.125 C35.63917969 30.93582031 35.65335938 31.74664062 35.66796875 32.58203125 C35.75318807 36.01921032 35.90388714 38.71166142 37 42 C40.00007271 43.70855022 40.00007271 43.70855022 43 45 C43.08256871 46.51987588 43.13988627 48.04112785 43.1875 49.5625 C43.23970703 50.83287109 43.23970703 50.83287109 43.29296875 52.12890625 C43 55 43 55 40 62 C27.46 62 14.92 62 2 62 C-1.375 55.25 -1.375 55.25 -1.1875 50.125 C-1.16042969 49.15820312 -1.13335938 48.19140625 -1.10546875 47.1953125 C-1.07066406 46.47085938 -1.03585937 45.74640625 -1 45 C-0.030625 44.566875 0.93875 44.13375 1.9375 43.6875 C5.27731765 42.2985139 5.27731765 42.2985139 6 39 C6.17404815 36.17243085 6.27687131 33.39141795 6.3125 30.5625 C6.34150391 29.79873047 6.37050781 29.03496094 6.40039062 28.24804688 C6.45625142 23.55432726 6.45625142 23.55432726 4.15234375 19.54296875 C1.84992419 17.89241389 -0.31784099 16.894053 -3 16 C-3.0828413 14.64692538 -3.14000368 13.29227589 -3.1875 11.9375 C-3.22230469 11.18339844 -3.25710938 10.42929688 -3.29296875 9.65234375 C-2.89227545 6.02473375 -1.54089079 3.30421987 0 0 Z " fill="#010922" transform="translate(585,218)"/>
<path d="M0 0 C1.80714743 0.13091274 3.61444039 0.25983253 5.421875 0.38671875 C6.72995117 0.48605713 6.72995117 0.48605713 8.06445312 0.58740234 C12.54205311 0.88632792 17.01590997 0.84256149 21.5 0.75 C21.995 3.72 21.995 3.72 22.5 6.75 C22.98210938 6.32847656 23.46421875 5.90695313 23.9609375 5.47265625 C24.59257813 4.92480469 25.22421875 4.37695312 25.875 3.8125 C26.50148438 3.26722656 27.12796875 2.72195312 27.7734375 2.16015625 C30.55514951 -0.111785 32.34849079 -0.40821006 35.875 -0.4375 C37.03128906 -0.45876953 37.03128906 -0.45876953 38.2109375 -0.48046875 C40.81749827 -0.21803345 42.32811477 0.28513273 44.5 1.75 C47.16836709 5.81241784 47.39054139 10.05298522 46.5 14.75 C44.97229168 17.72930306 43.23680584 19.81567114 40.5 21.75 C36.875 22.5 36.875 22.5 33.5 21.75 C31.1875 19.25 31.1875 19.25 29.5 16.75 C28.84 16.75 28.18 16.75 27.5 16.75 C25.86400445 21.06071844 25.2280687 24.64442764 25.25 29.25 C25.24484375 30.3328125 25.2396875 31.415625 25.234375 32.53125 C25.5160873 35.94494018 26.13366052 38.61013377 27.5 41.75 C30.5005907 43.66839859 30.5005907 43.66839859 33.5 44.75 C33.41266027 46.83410658 33.30447722 48.91734669 33.1875 51 C33.10048828 52.74023438 33.10048828 52.74023438 33.01171875 54.515625 C32.44673827 58.08664669 32.14215051 59.32202529 29.5 61.75 C26.5987618 62.13040878 24.08216779 62.26382855 21.18359375 62.2109375 C20.37132828 62.21002106 19.55906281 62.20910461 18.72218323 62.2081604 C17.00654246 62.20212206 15.29091235 62.1863689 13.57543945 62.16162109 C10.94378003 62.12508718 8.31352726 62.12060185 5.68164062 62.12109375 C4.01561279 62.11126361 2.34959451 62.09960706 0.68359375 62.0859375 C-0.10600235 62.08371185 -0.89559845 62.08148621 -1.7091217 62.07919312 C-7.26784394 61.98215606 -7.26784394 61.98215606 -9.5 59.75 C-11.08711051 54.54780443 -11.72575085 50.16802032 -11.5 44.75 C-9.70963542 43.83854167 -7.91927083 42.92708333 -6.12890625 42.015625 C-3.98053254 40.34638499 -3.83837609 39.43383226 -3.5 36.75 C-3.40689223 34.60578272 -3.37003761 32.45873209 -3.375 30.3125 C-3.37242187 29.20003906 -3.36984375 28.08757812 -3.3671875 26.94140625 C-3.48600777 24.08622508 -3.84646731 21.52492054 -4.5 18.75 C-5.634375 18.440625 -6.76875 18.13125 -7.9375 17.8125 C-11.5 16.75 -11.5 16.75 -12.5 15.75 C-12.65209159 13.81668191 -12.72186331 11.87658716 -12.75 9.9375 C-12.77578125 8.87917969 -12.8015625 7.82085937 -12.828125 6.73046875 C-12.5 3.75 -12.5 3.75 -11.578125 1.34765625 C-8.06774244 -1.3511153 -4.24368557 -0.38919776 0 0 Z " fill="#010922" transform="translate(533.5,218.25)"/>
<path d="M0 0 C0.08636719 0.81082031 0.17273438 1.62164062 0.26171875 2.45703125 C1.23400333 10.11934736 2.61107035 17.4903214 7 24 C13.43783521 28.62885672 21.16001292 30.5113035 29 30 C29.19880755 27.28939544 29.19880755 27.28939544 28 24 C25.86390458 21.82143748 23.61246046 19.9275133 21.2265625 18.02734375 C18.00193212 15.09123293 16.36996818 12.10990454 15 8 C17.7019433 8.36512747 19.58390852 8.69869237 21.8125 10.3125 C23 12 23 12 23 16 C23.99 16 24.98 16 26 16 C25.505 12.535 25.505 12.535 25 9 C36.15885874 5.48966848 48.07121247 7.98560487 58.16796875 13.09765625 C69.99890619 19.84838457 77.7308242 31.26377771 81.41772461 44.22070312 C82.46860752 49.23674131 82.44158383 54.20579314 82.375 59.3125 C82.36702393 60.41102295 82.35904785 61.5095459 82.35083008 62.64135742 C82.01500798 81.77188117 82.01500798 81.77188117 76 89 C71.5276526 88.47995961 68.78465939 87.3668243 65 85 C64.16082031 84.54882812 63.32164062 84.09765625 62.45703125 83.6328125 C51.7256727 77.51419448 44.00632031 67.70779042 40 56 C39.63132812 55.03835937 39.26265625 54.07671875 38.8828125 53.0859375 C34.84607627 41.64387825 34.24965833 30.28206147 39 19 C40.12614442 22.45241356 39.86920288 25.1691382 39.4375 28.75 C38.43929207 40.76896311 39.72911925 51.15591753 45.7578125 61.7421875 C47 64 47 64 47 66 C47.66 66 48.32 66 49 66 C49.89085151 67.4048043 50.78160141 68.80967313 51.671875 70.21484375 C57.45892317 77.99331732 66.01887841 82.90306152 75 86 C75.48473678 84.31409158 75.96248926 82.62617455 76.4375 80.9375 C76.70433594 79.99777344 76.97117187 79.05804688 77.24609375 78.08984375 C78.68153001 72.20678633 79.13749164 66.54595333 79.125 60.5 C79.12757813 59.2521875 79.13015625 58.004375 79.1328125 56.71875 C78.74630191 45.89645351 75.13722137 36.66636139 69.11328125 27.71875 C68 26 68 26 67.10546875 23.90625 C65.71740845 21.51270433 64.50337021 21.09780822 62 20 C60.63799651 19.03176386 59.28427287 18.05181166 57.9375 17.0625 C52.94602527 13.65997806 47.85976055 12.24862187 42 11 C42 12.98 42 14.96 42 17 C41.01 17.495 41.01 17.495 40 18 C40 15.69 40 13.38 40 11 C35.545 11.495 35.545 11.495 31 12 C30.75084061 13.76813112 30.52633368 15.53974982 30.3125 17.3125 C30.12107422 18.79169922 30.12107422 18.79169922 29.92578125 20.30078125 C29.71774898 23.03046834 29.71774898 23.03046834 31.453125 24.69921875 C31.96359375 25.12847656 32.4740625 25.55773437 33 26 C33.4375 28.5 33.4375 28.5 33 31 C32.33613281 31.35707031 31.67226563 31.71414062 30.98828125 32.08203125 C28.59871536 34.38709383 28.69616353 35.01691066 28.609375 38.23046875 C28.63592593 39.88326401 28.68357539 41.53582663 28.75 43.1875 C28.76804687 44.03248047 28.78609375 44.87746094 28.8046875 45.74804688 C28.85179414 47.83251573 28.92353767 49.91640144 29 52 C28.67 51.34 28.34 50.68 28 50 C27.34 50 26.68 50 26 50 C25.01 45.05 25.01 45.05 24 40 C22.80375 41.093125 21.6075 42.18625 20.375 43.3125 C17.08849791 46.15925886 14.19286466 48.63276152 10 50 C4.73982041 48.88616416 2.32117896 46.65454468 -1.125 42.625 C-4.59868359 38.58969011 -4.59868359 38.58969011 -8.3046875 34.7734375 C-10 33 -10 33 -10 31 C-10.99 30.67 -11.98 30.34 -13 30 C-16.24785197 27.06723815 -18.61392035 24.0509946 -20.125 19.9375 C-19.95290495 15.8932664 -18.55683402 14.09511486 -16 11 C-14.37064759 9.62131719 -12.70250393 8.28725907 -11 7 C-9.7315625 5.700625 -9.7315625 5.700625 -8.4375 4.375 C-5.79171221 1.79705292 -3.76997466 0 0 0 Z " fill="#E8CAC7" transform="translate(243,70)"/>
<path d="M0 0 C3.3 0 6.6 0 10 0 C10 54.45 10 108.9 10 165 C6.7 165 3.4 165 0 165 C0 110.55 0 56.1 0 0 Z " fill="#FFFFFF" transform="translate(196,11)"/>
<path d="M0 0 C5.28752183 2.17115941 8.23280148 6.09026591 11 11 C11.95762285 16.76439207 12.44752828 23.17996776 9.71875 28.49609375 C7.08830493 31.59718218 4.79875856 33.73351725 0.6796875 34.34375 C-4.75949031 34.64676826 -8.23635217 34.47294817 -12.5 30.875 C-16.48718825 27.07365527 -18.72100085 23.04599373 -19.46875 17.5625 C-19.56350307 6.76065018 -19.56350307 6.76065018 -16.625 3.1875 C-11.54969378 -1.04192185 -6.41347769 -0.72264537 0 0 Z " fill="#060C25" transform="translate(327,39)"/>
<path d="M0 0 C-0.56979842 3.91215256 -1.72962173 6.50904441 -3.875 9.8125 C-5.87365675 13.00652563 -7.50835105 16.0039597 -8.75 19.5625 C-10 23 -10 23 -12 24 C-12 24.99 -12 25.98 -12 27 C-10.68 27.33 -9.36 27.66 -8 28 C-8.66 28.556875 -9.32 29.11375 -10 29.6875 C-12.17421481 31.80673438 -12.17421481 31.80673438 -12.44140625 34.40234375 C-12.24077619 37.18511706 -12.24077619 37.18511706 -9.83984375 38.9921875 C-8.88207031 39.61351562 -7.92429687 40.23484375 -6.9375 40.875 C4.67229566 48.83344786 10.40003243 56.76405019 14.203125 70.33984375 C14.74037081 72.8985227 14.74037081 72.8985227 16 74 C18.09832844 92.52280791 15.48834375 107.74423108 3.95849609 122.50268555 C2.07491297 124.79422891 0.15343009 126.95864434 -2 129 C-2.66 129 -3.32 129 -4 129 C-4.33 129.66 -4.66 130.32 -5 131 C-5.14695312 129.1128125 -5.14695312 129.1128125 -5.296875 127.1875 C-6.35462318 114.70043339 -7.8987843 102.45758 -12.625 90.75 C-14.18065252 86.50731132 -14.86596168 82.44956917 -15.52734375 77.9921875 C-15.94274894 75.36243233 -16.50247891 72.83585683 -17.125 70.25 C-19.58941246 58.00617302 -17.88514918 45.20732966 -16 33 C-15.86722656 32.07445312 -15.73445313 31.14890625 -15.59765625 30.1953125 C-14.21648353 21.9608923 -10.78618125 14.39707633 -7 7 C-22.08144843 15.61797053 -28.50870948 30.17216263 -34 46 C-36.34770643 42.47844036 -36.37669614 40.49228157 -36.625 36.3125 C-36.69976562 35.13300781 -36.77453125 33.95351563 -36.8515625 32.73828125 C-36.90054687 31.83464844 -36.94953125 30.93101563 -37 30 C-35.58847656 29.87818359 -35.58847656 29.87818359 -34.1484375 29.75390625 C-30.9528797 29.33183052 -30.9528797 29.33183052 -29.5390625 27.15234375 C-29.08660156 26.05599609 -29.08660156 26.05599609 -28.625 24.9375 C-28.30789063 24.20402344 -27.99078125 23.47054687 -27.6640625 22.71484375 C-27.44492187 22.14894531 -27.22578125 21.58304688 -27 21 C-29.31 20.67 -31.62 20.34 -34 20 C-34 19.67 -34 19.34 -34 19 C-32.0509375 19.309375 -32.0509375 19.309375 -30.0625 19.625 C-26.46569054 19.67038561 -25.28905055 19.25326334 -22.5390625 16.84375 C-20.99656666 15.06039933 -19.49551209 13.240163 -18.04296875 11.3828125 C-16.08672635 9.1011531 -14.75998607 8.07918557 -12 7 C-12 6.34 -12 5.68 -12 5 C-10.68 4.67 -9.36 4.34 -8 4 C-8 3.34 -8 2.68 -8 2 C-4.77208445 -0.1519437 -3.71599191 -0.20086443 0 0 Z M-36 32 C-35.67 34.31 -35.34 36.62 -35 39 C-33.25372522 36.38058783 -32.61277612 34.96175123 -32 32 C-33.32 32 -34.64 32 -36 32 Z M-14 39 C-15.23758822 44.76558955 -15.14754408 50.44728158 -15.125 56.3125 C-15.12886719 57.30701172 -15.13273437 58.30152344 -15.13671875 59.32617188 C-15.12588635 67.57504399 -14.87674576 75.20196417 -12 83 C-11.58430431 84.34999213 -11.17879019 85.70314422 -10.78125 87.05859375 C-10.57113281 87.77466797 -10.36101562 88.49074219 -10.14453125 89.22851562 C-9.93183594 89.95748047 -9.71914063 90.68644531 -9.5 91.4375 C-9.28730469 92.16259766 -9.07460938 92.88769531 -8.85546875 93.63476562 C-8.43440195 95.07233419 -8.01502111 96.51039776 -7.59741211 97.94897461 C-7.04263072 99.8536409 -6.47684724 101.75509314 -5.91015625 103.65625 C-5.05656999 106.79217204 -4.4405639 109.85388238 -3.9375 113.0625 C-3.78152344 114.04347656 -3.62554687 115.02445312 -3.46484375 116.03515625 C-3.31144531 117.01355469 -3.15804687 117.99195313 -3 119 C-2.66854616 121.00031234 -2.33574215 123.00040296 -2 125 C3.4747986 119.67727914 7.38186127 114.91761439 10.125 107.75 C10.5118396 106.74876099 10.5118396 106.74876099 10.90649414 105.72729492 C16.77271095 90.22385627 15.01023123 76.06616179 8.5 60.953125 C6.25764673 56.53849199 3.51447484 52.50562226 0 49 C-0.66 49 -1.32 49 -2 49 C-2.2475 48.40703125 -2.495 47.8140625 -2.75 47.203125 C-4.18968863 44.6656738 -5.65151493 43.45955898 -8 41.75 C-8.70125 41.22921875 -9.4025 40.7084375 -10.125 40.171875 C-11.91415121 38.82333369 -11.91415121 38.82333369 -14 39 Z " fill="#D7E1E6" transform="translate(376,19)"/>
<path d="M0 0 C0.99 0 1.98 0 3 0 C3.25394531 1.01320313 3.50789062 2.02640625 3.76953125 3.0703125 C4.11683126 4.42196658 4.46450759 5.77352401 4.8125 7.125 C4.97814453 7.79015625 5.14378906 8.4553125 5.31445312 9.140625 C7.11751671 16.49294312 7.11751671 16.49294312 11.62109375 22.3203125 C12.22050781 22.58585937 12.81992188 22.85140625 13.4375 23.125 C14.12714844 23.43179688 14.81679687 23.73859375 15.52734375 24.0546875 C20.29487928 25.87734721 25.1303356 27.47417182 30 29 C30 29.99 30 30.98 30 32 C28.5355895 33.30169822 27.06280685 34.59753516 25.51953125 35.8046875 C23.92680626 37.00896191 23.92680626 37.00896191 22.375 38.625 C19.6964327 41.3035673 18.00934637 42.86708196 14.15234375 43.375 C9.99995818 42.88103592 9.00344714 41.49357119 6.375 38.3125 C5.64023438 37.44238281 4.90546875 36.57226562 4.1484375 35.67578125 C2.71907429 33.89557434 1.29585463 32.11041672 -0.12109375 30.3203125 C-2.00969164 27.90536936 -2.00969164 27.90536936 -4.4375 25.5625 C-11.82006369 18.17993631 -11.82006369 18.17993631 -12.44140625 14.10546875 C-11.85230203 9.96088599 -10.31809596 8.87322331 -7.125 6.25 C-6.22007812 5.49203125 -5.31515625 4.7340625 -4.3828125 3.953125 C-3.59648437 3.30859375 -2.81015625 2.6640625 -2 2 C-1.34 1.34 -0.68 0.68 0 0 Z " fill="#0CA5AC" transform="translate(238,74)"/>
<path d="M0 0 C1.01771484 -0.00257812 2.03542969 -0.00515625 3.08398438 -0.0078125 C4.15068359 -0.00007813 5.21738281 0.00765625 6.31640625 0.015625 C7.9106543 0.00402344 7.9106543 0.00402344 9.53710938 -0.0078125 C11.06561523 -0.00394531 11.06561523 -0.00394531 12.625 0 C14.02770142 0.00338379 14.02770142 0.00338379 15.45874023 0.00683594 C17.87890625 0.265625 17.87890625 0.265625 20.87890625 2.265625 C22.53440156 2.65062391 24.20114955 2.99355635 25.87890625 3.265625 C25.22858068 6.77738307 24.12948142 9.47180754 21.87890625 12.265625 C18.765625 12.40625 18.765625 12.40625 15.87890625 12.265625 C16.27335937 14.07546875 16.27335937 14.07546875 16.67578125 15.921875 C16.99488853 17.53618243 17.31251858 19.15078235 17.62890625 20.765625 C17.89380859 21.95285156 17.89380859 21.95285156 18.1640625 23.1640625 C19.20915676 28.70760594 18.64067673 31.65401084 15.80859375 36.51074219 C14.56227721 38.86329558 14.56896779 40.54024827 15.00390625 43.140625 C15.10960937 43.88054687 15.2153125 44.62046875 15.32421875 45.3828125 C15.78080337 47.48649392 15.78080337 47.48649392 17.87890625 49.265625 C18.00390625 52.390625 18.00390625 52.390625 17.87890625 55.265625 C19.36390625 55.760625 19.36390625 55.760625 20.87890625 56.265625 C22.1953125 58.515625 22.1953125 58.515625 23.44140625 61.265625 C24.90255202 64.97530128 24.90255202 64.97530128 27.87890625 67.265625 C27.90578776 68.91137066 27.92524748 70.55723913 27.94140625 72.203125 C27.95300781 73.11964844 27.96460938 74.03617187 27.9765625 74.98046875 C27.87890625 77.265625 27.87890625 77.265625 26.87890625 78.265625 C24.06640625 78.640625 24.06640625 78.640625 20.87890625 78.265625 C16.77405669 74.84491703 16.21169287 70.97121157 15.3828125 65.953125 C14.87214163 63.22954701 14.11630672 60.70944922 13.25390625 58.078125 C11.95355084 53.94181858 11.5974606 50.58112493 11.87890625 46.265625 C10.55890625 45.605625 9.23890625 44.945625 7.87890625 44.265625 C7.87890625 43.275625 7.87890625 42.285625 7.87890625 41.265625 C7.19787842 41.17998291 6.51685059 41.09434082 5.81518555 41.00610352 C2.73185382 40.61657743 -0.35086661 40.22240598 -3.43359375 39.828125 C-4.50544922 39.69341797 -5.57730469 39.55871094 -6.68164062 39.41992188 C-7.70966797 39.28779297 -8.73769531 39.15566406 -9.796875 39.01953125 C-11.21867065 38.83886108 -11.21867065 38.83886108 -12.66918945 38.65454102 C-15.12109375 38.265625 -15.12109375 38.265625 -18.12109375 37.265625 C-20.40494545 37.18183872 -22.69119475 37.15832585 -24.9765625 37.16796875 C-25.63819901 37.1693837 -26.29983551 37.17079865 -26.98152161 37.17225647 C-29.09059203 37.17784504 -31.19955552 37.19039535 -33.30859375 37.203125 C-34.74023284 37.20814148 -36.1718736 37.21270413 -37.60351562 37.21679688 C-41.10940963 37.2278107 -44.61524125 37.24506745 -48.12109375 37.265625 C-44.51012421 34.85831197 -42.84543706 35.02029727 -38.5546875 35.03515625 C-37.26498047 35.03708984 -35.97527344 35.03902344 -34.64648438 35.04101562 C-33.97593018 35.04721924 -33.30537598 35.05342285 -32.61450195 35.05981445 C-30.56253672 35.07808988 -28.51102257 35.08032391 -26.45898438 35.08007812 C-16.40162599 35.12535888 -16.40162599 35.12535888 -14.12109375 36.265625 C-12.5844051 36.49030331 -11.04141321 36.67359305 -9.49609375 36.828125 C-8.67882812 36.91191406 -7.8615625 36.99570313 -7.01953125 37.08203125 C-6.07980469 37.17291016 -6.07980469 37.17291016 -5.12109375 37.265625 C-4.62609375 36.275625 -4.62609375 36.275625 -4.12109375 35.265625 C-3.38503906 35.31203125 -2.64898437 35.3584375 -1.890625 35.40625 C4.31054626 35.71671233 4.31054626 35.71671233 9.94140625 33.453125 C14.58091822 28.21496632 14.44671711 23.68478338 14.26171875 16.953125 C13.62417058 10.81184467 11.32630858 8.42509765 6.75390625 4.390625 C2.26762933 2.63512533 -2.34059449 2.50841743 -7.12109375 2.265625 C-4.55727096 -0.29819779 -3.5573506 0.00859189 0 0 Z " fill="#D3B5BC" transform="translate(323.12109375,36.734375)"/>
<path d="M0 0 C2.45566118 3.68349177 2.6915246 6.72119156 2 11 C-0.60205131 14.80299807 -3.57816172 15.99882907 -8 17 C-15.14876607 17.63662481 -21.62128745 16.83013596 -28 13.375 C-30.333203 10.60432143 -30.78143472 8.58822765 -30.55859375 4.96875 C-29.50594113 1.2587016 -27.19675602 0.02871055 -24 -2 C-16.40381566 -4.57581197 -6.86739615 -4.12043769 0 0 Z " fill="#00A6AC" transform="translate(269,198)"/>
<path d="M0 0 C5.40700219 -0.42888403 5.40700219 -0.42888403 8.1171875 1.53125 C8.98730469 2.50578125 8.98730469 2.50578125 9.875 3.5 C10.47054687 4.1496875 11.06609375 4.799375 11.6796875 5.46875 C12.11539063 5.9740625 12.55109375 6.479375 13 7 C13.33 6.01 13.66 5.02 14 4 C15.875 3.125 15.875 3.125 18 3 C19.5625 4.375 19.5625 4.375 21 6 C21.99 6.33 22.98 6.66 24 7 C26.04108797 10.00791911 26.19878036 12.42195344 26 16 C25.01 16 24.02 16 23 16 C22.71125 15.21625 22.4225 14.4325 22.125 13.625 C21.15087746 10.90328368 21.15087746 10.90328368 19 9 C16.93125966 8.3574765 16.93125966 8.3574765 15 8 C15.9590625 9.1446875 15.9590625 9.1446875 16.9375 10.3125 C19 13 19 13 20 16 C21.7948633 17.78097763 21.7948633 17.78097763 23.9375 19.5 C26.50975192 21.62876021 28.12260763 23.18391145 30 26 C29.625 28.6875 29.625 28.6875 29 31 C21.60700768 31.48215167 15.39255519 29.53625141 8.6875 26.5 C1.74344736 20.04041615 0.43560908 11.57265411 0.04296875 2.45703125 C0.02878906 1.64621094 0.01460937 0.83539063 0 0 Z " fill="#0CA5AC" transform="translate(243,70)"/>
<path d="M0 0 C1.98 0 3.96 0 6 0 C6.12117188 0.62648438 6.24234375 1.25296875 6.3671875 1.8984375 C6.53476562 2.71570313 6.70234375 3.53296875 6.875 4.375 C7.11863281 5.59316406 7.11863281 5.59316406 7.3671875 6.8359375 C7.86658932 9.18673923 7.86658932 9.18673923 10 11 C10.125 14.125 10.125 14.125 10 17 C10.99 17.33 11.98 17.66 13 18 C14.31640625 20.25 14.31640625 20.25 15.5625 23 C17.02364577 26.70967628 17.02364577 26.70967628 20 29 C20.02688151 30.64574566 20.04634123 32.29161413 20.0625 33.9375 C20.07410156 34.85402344 20.08570313 35.77054688 20.09765625 36.71484375 C20 39 20 39 19 40 C16.1875 40.375 16.1875 40.375 13 40 C8.89515044 36.57929203 8.33278662 32.70558657 7.50390625 27.6875 C6.99323538 24.96392201 6.23740047 22.44382422 5.375 19.8125 C4.07464459 15.67619358 3.71855435 12.31549993 4 8 C2.68 7.34 1.36 6.68 0 6 C0 5.01 0 4.02 0 3 C-0.99 2.67 -1.98 2.34 -3 2 C-2.01 2 -1.02 2 0 2 C0 1.34 0 0.68 0 0 Z " fill="#0A9DA3" transform="translate(331,75)"/>
<path d="M0 0 C-0.56979842 3.91215256 -1.72962173 6.50904441 -3.875 9.8125 C-5.87365675 13.00652563 -7.50835105 16.0039597 -8.75 19.5625 C-10 23 -10 23 -12 24 C-12 24.99 -12 25.98 -12 27 C-10.68 27.33 -9.36 27.66 -8 28 C-8.61875 28.5775 -9.2375 29.155 -9.875 29.75 C-11.81347053 31.80249821 -12.90014249 33.43366582 -14 36 C-16.57465832 25.70136674 -11.97462223 15.88746738 -7 7 C-22.08144843 15.61797053 -28.50870948 30.17216263 -34 46 C-36.34770643 42.47844036 -36.37669614 40.49228157 -36.625 36.3125 C-36.69976562 35.13300781 -36.77453125 33.95351563 -36.8515625 32.73828125 C-36.90054687 31.83464844 -36.94953125 30.93101563 -37 30 C-35.58847656 29.87818359 -35.58847656 29.87818359 -34.1484375 29.75390625 C-30.9528797 29.33183052 -30.9528797 29.33183052 -29.5390625 27.15234375 C-29.08660156 26.05599609 -29.08660156 26.05599609 -28.625 24.9375 C-28.30789063 24.20402344 -27.99078125 23.47054687 -27.6640625 22.71484375 C-27.44492187 22.14894531 -27.22578125 21.58304688 -27 21 C-29.31 20.67 -31.62 20.34 -34 20 C-34 19.67 -34 19.34 -34 19 C-32.0509375 19.309375 -32.0509375 19.309375 -30.0625 19.625 C-26.46569054 19.67038561 -25.28905055 19.25326334 -22.5390625 16.84375 C-20.99656666 15.06039933 -19.49551209 13.240163 -18.04296875 11.3828125 C-16.08672635 9.1011531 -14.75998607 8.07918557 -12 7 C-12 6.34 -12 5.68 -12 5 C-10.68 4.67 -9.36 4.34 -8 4 C-8 3.34 -8 2.68 -8 2 C-4.77208445 -0.1519437 -3.71599191 -0.20086443 0 0 Z M-36 32 C-35.67 34.31 -35.34 36.62 -35 39 C-33.25372522 36.38058783 -32.61277612 34.96175123 -32 32 C-33.32 32 -34.64 32 -36 32 Z " fill="#EDCCD0" transform="translate(376,19)"/>
<path d="M0 0 C0.56730978 3.48090072 0.75414049 6.53803962 0 10 C-2.06843357 12.27224149 -4.20472712 13.78292546 -6.7734375 15.4609375 C-9.23506637 16.94999985 -9.23506637 16.94999985 -10.875 19.9375 C-13.63225325 22.61365756 -14.97808992 22.30290226 -18.75 22.3125 C-20.50126074 22.23227209 -22.25215533 22.13560864 -24 22 C-20.98267407 13.12179491 -9.91097476 0 0 0 Z " fill="#1AA4AC" transform="translate(305,48)"/>
<path d="M0 0 C0.33 0.99 0.66 1.98 1 3 C0.01 3.495 0.01 3.495 -1 4 C-4.55749847 6.37166565 -7.28187784 9.17955124 -10.23046875 12.2578125 C-12 14 -12 14 -14 15 C-14.59130428 17.65934047 -14.59130428 17.65934047 -14 21 C-12.323624 23.26877955 -10.50150574 25.24845841 -8.53125 27.265625 C-7 29 -7 29 -7 31 C-6.43539062 31.22816406 -5.87078125 31.45632812 -5.2890625 31.69140625 C-2.37809185 33.3555277 -0.58436619 35.42148265 1.625 37.9375 C2.40101563 38.81277344 3.17703125 39.68804687 3.9765625 40.58984375 C6 43 6 43 8 46 C11.47220193 46.4528959 13.30444214 46.46370524 16.25 44.5 C16.8275 44.005 17.405 43.51 18 43 C18.66 43 19.32 43 20 43 C20.268125 42.401875 20.53625 41.80375 20.8125 41.1875 C22.00987475 38.98180967 23.04478984 37.56416813 25 36 C25.99 36 26.98 36 28 36 C28.95261487 40.76307437 29.08333357 45.1666528 29 50 C27.11608215 46.73454239 26.50712033 43.71888239 26 40 C25.49210937 40.47050781 24.98421875 40.94101563 24.4609375 41.42578125 C16.66216216 48.47972973 16.66216216 48.47972973 12 50 C6.73982041 48.88616416 4.32117896 46.65454468 0.875 42.625 C-2.59868359 38.58969011 -2.59868359 38.58969011 -6.3046875 34.7734375 C-8 33 -8 33 -8 31 C-8.99 30.67 -9.98 30.34 -11 30 C-14.24785197 27.06723815 -16.61392035 24.0509946 -18.125 19.9375 C-17.95290495 15.8932664 -16.55683402 14.09511486 -14 11 C-12.37064759 9.62131719 -10.70250393 8.28725907 -9 7 C-7.7315625 5.700625 -7.7315625 5.700625 -6.4375 4.375 C-4.29781736 2.29018101 -2.72916878 1.11188358 0 0 Z " fill="#D4E7EC" transform="translate(241,70)"/>
<path d="M0 0 C0.33 0 0.66 0 1 0 C0.9278125 1.09957031 0.855625 2.19914062 0.78125 3.33203125 C-0.58938938 19.33455124 -0.58938938 19.33455124 2 35 C2.28701057 37.2292465 2.49174185 39.44998276 2.65625 41.69140625 C3.09143089 44.61404153 4.03309271 47.20671229 5 50 C5.85868626 52.80506509 6.67832585 55.62139861 7.5 58.4375 C7.71269531 59.16259766 7.92539062 59.88769531 8.14453125 60.63476562 C8.56774313 62.07965771 8.9859103 63.52603731 9.39892578 64.97387695 C9.92660618 66.75260142 10.53159967 68.50800724 11.1484375 70.2578125 C12.37820732 75.66203035 12.2101937 80.91629315 12.125 86.4375 C12.11597656 87.55060547 12.10695313 88.66371094 12.09765625 89.81054688 C12.0742224 92.54059023 12.041414 95.2701801 12 98 C11.67 98 11.34 98 11 98 C10.90203125 96.741875 10.8040625 95.48375 10.703125 94.1875 C9.64537682 81.70043339 8.1012157 69.45758 3.375 57.75 C1.81934748 53.50731132 1.13403832 49.44956917 0.47265625 44.9921875 C0.05725106 42.36243233 -0.50247891 39.83585683 -1.125 37.25 C-3.5947349 24.9797298 -1.82248933 12.23671406 0 0 Z " fill="#DCB1B4" transform="translate(360,52)"/>
<path d="M0 0 C0.33 0 0.66 0 1 0 C1.08636719 0.81082031 1.17273438 1.62164062 1.26171875 2.45703125 C2.23400333 10.11934736 3.61107035 17.4903214 8 24 C14.43783521 28.62885672 22.16001292 30.5113035 30 30 C29.5205537 25.78087253 28.83374881 23.20336822 26 20 C26.99 19.67 27.98 19.34 29 19 C29.66 18.01 30.32 17.02 31 16 C30.9071875 17.6396875 30.9071875 17.6396875 30.8125 19.3125 C31.01956607 23.38479942 31.2453274 23.47488345 34 26 C34.4375 28.5 34.4375 28.5 34 31 C33.33613281 31.35707031 32.67226563 31.71414062 31.98828125 32.08203125 C29.59871536 34.38709383 29.69616353 35.01691066 29.609375 38.23046875 C29.63592593 39.88326401 29.68357539 41.53582663 29.75 43.1875 C29.76804687 44.03248047 29.78609375 44.87746094 29.8046875 45.74804688 C29.85179414 47.83251573 29.92353767 49.91640144 30 52 C27.00371461 49.00371461 27.2750714 45.41506529 26.875 41.375 C26.78863281 40.57320312 26.70226562 39.77140625 26.61328125 38.9453125 C26.40103673 36.96436365 26.19950069 34.98227282 26 33 C25.2265625 32.82984375 24.453125 32.6596875 23.65625 32.484375 C8.02105263 28.84648254 8.02105263 28.84648254 4.421875 23.77734375 C2.85463815 20.71606517 1.80784721 17.7286289 0.8125 14.4375 C0.46832031 13.32246094 0.12414062 12.20742187 -0.23046875 11.05859375 C-1 8 -1 8 -1 4 C-1.66 3.67 -2.32 3.34 -3 3 C-2.01 3 -1.02 3 0 3 C0 2.01 0 1.02 0 0 Z " fill="#A1C4D3" transform="translate(242,70)"/>
<path d="M0 0 C1.12614442 3.45241356 0.86920288 6.1691382 0.4375 9.75 C-0.56070793 21.76896311 0.72911925 32.15591753 6.7578125 42.7421875 C8 45 8 45 8 47 C8.66 47 9.32 47 10 47 C10.89085151 48.4048043 11.78160141 49.80967313 12.671875 51.21484375 C17.58206174 57.8147124 25.3052005 63.28418841 33 66 C30.24218981 67.10312408 29.19074165 67.07561442 26.37890625 65.9609375 C21.27382816 63.08623333 16.81206619 60.5332679 13 56 C12.36320312 55.2678125 11.72640625 54.535625 11.0703125 53.78125 C6.600581 48.47651372 3.32474047 43.52795427 1 37 C0.62875 36.03449219 0.2575 35.06898437 -0.125 34.07421875 C-4.14892034 22.63119529 -4.74962325 11.28035522 0 0 Z " fill="#DAE8EF" transform="translate(282,89)"/>
<path d="M0 0 C1.65 0.33 3.3 0.66 5 1 C5.01417969 1.7734375 5.02835937 2.546875 5.04296875 3.34375 C5.36805512 10.44293352 6.26463974 15.54882947 11 21 C12.31175986 22.02813611 13.6369893 23.04084432 15 24 C15 24.99 15 25.98 15 27 C13.54207116 27.05399736 12.08357288 27.09279177 10.625 27.125 C9.40683594 27.15980469 9.40683594 27.15980469 8.1640625 27.1953125 C6 27 6 27 4 25 C5.65 24.67 7.3 24.34 9 24 C8.21625 23.0925 7.4325 22.185 6.625 21.25 C4.65243188 18.96597375 3.27379719 16.73806872 2 14 C0.68712379 15.14540225 -0.62529021 16.29133433 -1.9375 17.4375 C-2.66839844 18.07558594 -3.39929688 18.71367188 -4.15234375 19.37109375 C-5.12139353 20.22541459 -6.08651175 21.08651175 -7 22 C-4.36 22.66 -1.72 23.32 1 24 C1 24.33 1 24.66 1 25 C-0.43655854 25.08131463 -1.8744483 25.13933559 -3.3125 25.1875 C-4.51326172 25.23970703 -4.51326172 25.23970703 -5.73828125 25.29296875 C-8.47851584 24.93801608 -9.29171079 24.10633718 -11 22 C-7.64026633 17.88981036 -4.39717763 14.05359558 0 11 C0.66 11 1.32 11 2 11 C2 7.7 2 4.4 2 1 C1.34 0.67 0.68 0.34 0 0 Z " fill="#E4E3E7" transform="translate(303,47)"/>
<path d="M0 0 C0.99 0.33 1.98 0.66 3 1 C3.89192978 3.44609505 4.57856991 5.73372081 5.1875 8.25 C5.36474609 8.91902344 5.54199219 9.58804688 5.72460938 10.27734375 C6.6511471 13.91910207 7.21116067 17.24279637 7 21 C2.92276266 22.95031692 -0.31692422 23.21581971 -4.8125 23.125 C-5.97394531 23.10695312 -7.13539063 23.08890625 -8.33203125 23.0703125 C-9.21246094 23.04710937 -10.09289062 23.02390625 -11 23 C-9.44347945 17.6462535 -7.0182491 12.99849053 -4.375 8.125 C-3.95476562 7.34125 -3.53453125 6.5575 -3.1015625 5.75 C-2.0718978 3.83107943 -1.03652433 1.91522397 0 0 Z M0 6 C-0.67408308 7.26691507 -1.33900497 8.53870749 -2 9.8125 C-2.37125 10.52019531 -2.7425 11.22789062 -3.125 11.95703125 C-4.19685358 14.08920729 -4.19685358 14.08920729 -4 17 C-4.66 17 -5.32 17 -6 17 C-6.33 18.32 -6.66 19.64 -7 21 C-5.54119891 20.85892253 -4.08296449 20.71197585 -2.625 20.5625 C-1.81289063 20.48128906 -1.00078125 20.40007812 -0.1640625 20.31640625 C2.04272805 20.10909886 2.04272805 20.10909886 4 19 C3.85915204 17.20793453 3.71216299 15.41635083 3.5625 13.625 C3.48128906 12.62726563 3.40007812 11.62953125 3.31640625 10.6015625 C3.15034374 8.02072387 3.15034374 8.02072387 2 6 C1.34 6 0.68 6 0 6 Z " fill="#C9B2B7" transform="translate(347,139)"/>
<path d="M0 0 C2.48802235 3.02423406 3.86863596 5.90966762 5.25 9.5625 C11.43193766 24.63325925 21.40278983 36.521034 36 44 C37.18916016 44.61681641 37.18916016 44.61681641 38.40234375 45.24609375 C40.25637604 46.18777272 42.12639416 47.09789348 44 48 C44 48.66 44 49.32 44 50 C32.9093528 45.68921925 20.76322017 40.29185678 14 30 C14 29.34 14 28.68 14 28 C13.01 27.67 12.02 27.34 11 27 C6.50137189 21.18245592 3.27807638 14.96078894 1 8 C0.67 7.34 0.34 6.68 0 6 C-0.039992 4.00039988 -0.04346799 1.99952758 0 0 Z " fill="#D5E7EE" transform="translate(270,120)"/>
<path d="M0 0 C2.7019433 0.36512747 4.58390852 0.69869237 6.8125 2.3125 C8 4 8 4 8 8 C8.99 8 9.98 8 11 8 C10.67 6.02 10.34 4.04 10 2 C15.72040011 1.1679418 21.22240116 0.87963336 27 1 C24.60236815 3.39763185 23.66726502 3.34280586 20.375 3.625 C19.14910156 3.73714844 19.14910156 3.73714844 17.8984375 3.8515625 C17.27195312 3.90054688 16.64546875 3.94953125 16 4 C15.01 6.64 14.02 9.28 13 12 C9.17208423 11.46834503 6.84038231 10.65102349 4 8 C2.19667346 5.32840512 1.02089464 3.06268393 0 0 Z " fill="#E2E4EA" transform="translate(258,78)"/>
<path d="M0 0 C2.1875 1.51953125 2.1875 1.51953125 4 3 C3.35933594 2.94199219 2.71867187 2.88398437 2.05859375 2.82421875 C-3.63174478 2.52740526 -7.09424053 2.91233316 -11.55078125 6.55859375 C-13.20180788 8.13148515 -13.20180788 8.13148515 -15.0625 10.75 C-17 13 -17 13 -19.8046875 13.40625 C-23.54095591 14.10051992 -25.17905449 15.31894927 -28.0625 17.75 C-28.91714844 18.46671875 -29.77179688 19.1834375 -30.65234375 19.921875 C-33.2192405 22.19406979 -35.65608051 24.49981921 -38 27 C-38.99 26.67 -39.98 26.34 -41 26 C-39.625 24.5 -39.625 24.5 -38 23 C-37.34 23 -36.68 23 -36 23 C-35.67 22.01 -35.34 21.02 -35 20 C-34.34 20 -33.68 20 -33 20 C-32.67 19.01 -32.34 18.02 -32 17 C-31.34 17 -30.68 17 -30 17 C-30 16.34 -30 15.68 -30 15 C-28.35 14.67 -26.7 14.34 -25 14 C-25 13.34 -25 12.68 -25 12 C-21.91190305 10.23537317 -20.76687864 10 -17 10 C-16.773125 9.4225 -16.54625 8.845 -16.3125 8.25 C-12.76647441 2.17109899 -6.84592784 -0.71311748 0 0 Z " fill="#E0E3E8" transform="translate(324,35)"/>
<path d="M0 0 C0.73508645 4.70455329 -1.1854516 7.13784617 -3.6953125 10.8671875 C-5.01169715 13.01912169 -5.86076343 15.05956699 -6.6875 17.4375 C-8 21 -8 21 -10 22 C-10 22.99 -10 23.98 -10 25 C-8.68 25.33 -7.36 25.66 -6 26 C-6.61875 26.5775 -7.2375 27.155 -7.875 27.75 C-9.81347053 29.80249821 -10.90014249 31.43366582 -12 34 C-14.57465832 23.70136674 -9.97462223 13.88746738 -5 5 C-5.66 4.67 -6.32 4.34 -7 4 C-2.25 0 -2.25 0 0 0 Z " fill="#D1AFB0" transform="translate(374,21)"/>
<path d="M0 0 C4.95 0 9.9 0 15 0 C14.06261812 3.74952753 13.40143218 6.01891178 11 9 C8.0625 9.6875 8.0625 9.6875 5 9 C2.58616217 6.06425129 1.1995243 3.59857289 0 0 Z " fill="#1EA1AA" transform="translate(334,40)"/>
<path d="M0 0 C0.886875 0.144375 1.77375 0.28875 2.6875 0.4375 C2.6875 2.0875 2.6875 3.7375 2.6875 5.4375 C2.1925 3.4575 2.1925 3.4575 1.6875 1.4375 C-0.78877099 2.07671965 -0.78877099 2.07671965 -3.3125 3.4375 C-3.98015041 5.10377283 -4.64665932 6.77050318 -5.3125 8.4375 C-7.1875 10.89453125 -7.1875 10.89453125 -9.3125 13.25 C-10.01375 14.04019531 -10.715 14.83039063 -11.4375 15.64453125 C-13.3125 17.4375 -13.3125 17.4375 -15.3125 17.4375 C-15.6425 18.4275 -15.9725 19.4175 -16.3125 20.4375 C-20.52775427 23.91835436 -24.81419004 26.02512675 -30.3125 26.4375 C-27.86899504 23.81657884 -25.17846812 21.80725964 -22.25 19.75 C-21.37214844 19.12738281 -20.49429687 18.50476563 -19.58984375 17.86328125 C-17.3125 16.4375 -17.3125 16.4375 -15.3125 16.4375 C-15.3125 15.7775 -15.3125 15.1175 -15.3125 14.4375 C-14.6525 14.4375 -13.9925 14.4375 -13.3125 14.4375 C-12.9825 13.4475 -12.6525 12.4575 -12.3125 11.4375 C-11.6525 11.4375 -10.9925 11.4375 -10.3125 11.4375 C-10.085625 10.921875 -9.85875 10.40625 -9.625 9.875 C-4.6375 0.6125 -4.6375 0.6125 0 0 Z " fill="#BED4DE" transform="translate(395.3125,138.5625)"/>
<path d="M0 0 C0.71019287 0.00161133 1.42038574 0.00322266 2.15209961 0.00488281 C11.30283898 0.21583895 18.75840107 3.596894 26.4375 8.375 C26.4375 8.705 26.4375 9.035 26.4375 9.375 C20.92985049 9.75052156 20.92985049 9.75052156 18.59375 7.96875 C16.01888024 6.0655854 13.78273254 5.46130814 10.6875 4.6875 C9.70265625 4.43613281 8.7178125 4.18476562 7.703125 3.92578125 C6.95546875 3.74402344 6.2078125 3.56226562 5.4375 3.375 C5.4375 5.355 5.4375 7.335 5.4375 9.375 C4.4475 9.87 4.4475 9.87 3.4375 10.375 C3.4375 7.735 3.4375 5.095 3.4375 2.375 C-1.5125 2.375 -6.4625 2.375 -11.5625 2.375 C-7.4181698 0.3028349 -4.49065823 -0.01054269 0 0 Z " fill="#DDBBBF" transform="translate(279.5625,77.625)"/>
<path d="M0 0 C0.66 0 1.32 0 2 0 C2.05859908 4.31244188 2.09379686 8.62477974 2.125 12.9375 C2.14175781 14.14986328 2.15851563 15.36222656 2.17578125 16.61132812 C2.27267194 34.48766115 2.27267194 34.48766115 -3 40 C-6.71888239 39.49287967 -9.73454239 38.88391785 -13 37 C-9.93109813 35.46554906 -7.29905734 36.45015711 -4 37 C-3.51526322 35.31409158 -3.03751074 33.62617455 -2.5625 31.9375 C-2.16224609 30.52791016 -2.16224609 30.52791016 -1.75390625 29.08984375 C-0.11421123 22.36964292 0.13043423 15.93430895 0.0625 9.0625 C0.05798828 8.18787109 0.05347656 7.31324219 0.04882812 6.41210938 C0.03714834 4.27470953 0.01921689 2.13734537 0 0 Z " fill="#E6D2D6" transform="translate(322,119)"/>
<path d="M0 0 C1.28970703 0.00193359 2.57941406 0.00386719 3.90820312 0.00585938 C4.57875732 0.01206299 5.24931152 0.0182666 5.94018555 0.0246582 C7.99215078 0.04293363 10.04366493 0.04516766 12.09570312 0.04492188 C22.15306151 0.09020263 22.15306151 0.09020263 24.43359375 1.23046875 C25.9702824 1.45514706 27.51327429 1.6384368 29.05859375 1.79296875 C29.87585938 1.87675781 30.693125 1.96054688 31.53515625 2.046875 C32.16164063 2.10746094 32.788125 2.16804688 33.43359375 2.23046875 C33.76359375 1.57046875 34.09359375 0.91046875 34.43359375 0.23046875 C38.72359375 0.23046875 43.01359375 0.23046875 47.43359375 0.23046875 C47.10359375 0.89046875 46.77359375 1.55046875 46.43359375 2.23046875 C44.37109375 2.85546875 44.37109375 2.85546875 42.43359375 3.23046875 C43.75359375 3.89046875 45.07359375 4.55046875 46.43359375 5.23046875 C40.57190867 5.61091466 35.40342096 5.06051591 29.68359375 3.73046875 C16.96915237 0.91042116 3.37482215 1.98402934 -9.56640625 2.23046875 C-5.95543671 -0.17684428 -4.29074956 -0.01485898 0 0 Z " fill="#C69599" transform="translate(284.56640625,71.76953125)"/>
<path d="M0 0 C0.99 0.33 1.98 0.66 3 1 C2.60167969 1.845625 2.20335937 2.69125 1.79296875 3.5625 C-1.04591349 9.64088534 -3.76686325 15.67277921 -6 22 C-8.34770643 18.47844036 -8.37669614 16.49228157 -8.625 12.3125 C-8.69976562 11.13300781 -8.77453125 9.95351563 -8.8515625 8.73828125 C-8.90054687 7.83464844 -8.94953125 6.93101563 -9 6 C-7.57300781 5.83177734 -7.57300781 5.83177734 -6.1171875 5.66015625 C-2.79587186 5.31893411 -2.79587186 5.31893411 -1.125 2.4375 C-0.75375 1.633125 -0.3825 0.82875 0 0 Z M-8 8 C-7.67 10.31 -7.34 12.62 -7 15 C-5.25372522 12.38058783 -4.61277612 10.96175123 -4 8 C-5.32 8 -6.64 8 -8 8 Z " fill="#E8D1D3" transform="translate(348,43)"/>
<path d="M0 0 C0.54527344 0.19335938 1.09054687 0.38671875 1.65234375 0.5859375 C5.50383914 1.91585556 9.23692287 3.09029503 13.25 3.8125 C18.59262345 4.90745463 23.29410104 7.29821197 28.1796875 9.66015625 C30.98236244 11.06159509 30.98236244 11.06159509 34 12 C34.66 12.99 35.32 13.98 36 15 C38.05003955 16.19232613 38.05003955 16.19232613 40 17 C39.01 17.495 39.01 17.495 38 18 C35.64018187 17.06421005 33.30368736 16.06652192 31 15 C31 14.34 31 13.68 31 13 C30.071875 12.95875 29.14375 12.9175 28.1875 12.875 C23.47928171 12.22821446 19.85005026 9.82936177 15.78515625 7.4921875 C12.59161914 5.78120408 9.44066872 4.65185854 5.97265625 3.640625 C3.85493522 2.95288985 1.96655293 2.03826956 0 1 C0 0.67 0 0.34 0 0 Z " fill="#C8DDE6" transform="translate(426,132)"/>
<path d="M0 0 C9.62240225 11.3593975 7.44545725 29.20967148 7 43 C6.67 43 6.34 43 6 43 C5.89042969 41.70707031 5.78085937 40.41414063 5.66796875 39.08203125 C4.86880871 30.15449319 3.89376518 21.56031808 1.6640625 12.85546875 C0.67597784 8.60670469 0.28450496 4.34605852 0 0 Z " fill="#E3BFC2" transform="translate(365,107)"/>
<path d="M0 0 C0.84304688 0.65935547 0.84304688 0.65935547 1.703125 1.33203125 C3.98057528 2.98589395 6.27935281 4.34317726 8.75 5.6875 C9.54921875 6.12449219 10.3484375 6.56148437 11.171875 7.01171875 C11.77515625 7.33785156 12.3784375 7.66398437 13 8 C13 8.66 13 9.32 13 10 C13.804375 10.268125 14.60875 10.53625 15.4375 10.8125 C16.283125 11.204375 17.12875 11.59625 18 12 C18.33 12.99 18.66 13.98 19 15 C19.8971875 15.433125 19.8971875 15.433125 20.8125 15.875 C23.75656081 17.38908842 25.19327412 19.25645329 27 22 C26.67 22.99 26.34 23.98 26 25 C25.29875 24.071875 24.5975 23.14375 23.875 22.1875 C18.11979658 15.4199355 10.35525299 9.903502 3 5 C1.68 5 0.36 5 -1 5 C-0.67 3.35 -0.34 1.7 0 0 Z " fill="#D8E1E9" transform="translate(364,42)"/>
<path d="M0 0 C1.875 0.8125 1.875 0.8125 4 2 C4.70125 2.28875 5.4025 2.5775 6.125 2.875 C8.51293919 4.30776352 9.10146534 5.3792739 10 8 C10.125 10.75 10.125 10.75 10 13 C9.01 13 8.02 13 7 13 C6.71125 12.21625 6.4225 11.4325 6.125 10.625 C5.15087746 7.90328368 5.15087746 7.90328368 3 6 C0.93125966 5.3574765 0.93125966 5.3574765 -1 5 C-1.33 5.66 -1.66 6.32 -2 7 C-2.66 6.67 -3.32 6.34 -4 6 C-2.25 1.125 -2.25 1.125 0 0 Z " fill="#30A1A8" transform="translate(259,73)"/>
<path d="M0 0 C5.93106639 -0.6083145 9.81703929 1.48111013 15 4 C16.9927324 4.93295635 18.98867952 5.85883943 20.98461914 6.78491211 C23.99332675 8.18232971 26.99657135 9.59127721 30 11 C26.41334532 12.19555156 25.33989935 11.42946395 22.0390625 9.8984375 C18.45886891 8.32095757 14.72083509 7.19701284 11 6 C10.01 5.67 9.02 5.34 8 5 C8 4.34 8 3.68 8 3 C7.236875 3.061875 6.47375 3.12375 5.6875 3.1875 C3 3 3 3 1.1875 1.5 C0.5996875 0.7575 0.5996875 0.7575 0 0 Z " fill="#D9E9F0" transform="translate(408,124)"/>
<path d="M0 0 C0.5775 0.680625 1.155 1.36125 1.75 2.0625 C4.85999086 4.74054769 7.19746216 4.32011461 11.171875 4.140625 C12.07679688 4.07101563 12.07679688 4.07101563 13 4 C13.66 5.65 14.32 7.3 15 9 C14.4225 8.505 13.845 8.01 13.25 7.5 C10.89599371 5.63019987 10.89599371 5.63019987 7 6 C6.67 7.32 6.34 8.64 6 10 C5.57589844 9.50628906 5.15179688 9.01257813 4.71484375 8.50390625 C0.65721731 3.95961417 0.65721731 3.95961417 -4.9375 2.0625 C-6.4534375 2.0315625 -6.4534375 2.0315625 -8 2 C-8 1.34 -8 0.68 -8 0 C-4.61786861 -1.12737713 -3.35228621 -1.06292002 0 0 Z " fill="#C8E1E8" transform="translate(250,68)"/>
<path d="M0 0 C-0.875 7.75 -0.875 7.75 -2 10 C-5.16015625 10.4140625 -5.16015625 10.4140625 -9.0625 10.625 C-10.35285156 10.69976562 -11.64320313 10.77453125 -12.97265625 10.8515625 C-13.97167969 10.90054688 -14.97070312 10.94953125 -16 11 C-13 9 -13 9 -11.0625 8.6875 C-8.02089713 7.67363238 -6.91233896 5.50994488 -5 3 C-1.37931034 0 -1.37931034 0 0 0 Z " fill="#E1C3C8" transform="translate(340,65)"/>
<path d="M0 0 C0.95261487 4.76307437 1.08333357 9.1666528 1 14 C-0.88391785 10.73454239 -1.49287967 7.71888239 -2 4 C-2.54269531 4.49371094 -3.08539063 4.98742187 -3.64453125 5.49609375 C-4.35996094 6.13675781 -5.07539063 6.77742188 -5.8125 7.4375 C-6.87404297 8.39462891 -6.87404297 8.39462891 -7.95703125 9.37109375 C-10 11 -10 11 -13 12 C-12.67 10.68 -12.34 9.36 -12 8 C-11.38125 7.9175 -10.7625 7.835 -10.125 7.75 C-7.84645565 7.20721701 -7.84645565 7.20721701 -6.9375 5.125 C-6.4734375 4.073125 -6.4734375 4.073125 -6 3 C-3.53571429 0 -3.53571429 0 0 0 Z " fill="#D6E9F0" transform="translate(269,106)"/>
<path d="M0 0 C1.32 0 2.64 0 4 0 C4 1.32 4 2.64 4 4 C4.62648438 4.13277344 5.25296875 4.26554688 5.8984375 4.40234375 C7.12433594 4.66724609 7.12433594 4.66724609 8.375 4.9375 C9.18710937 5.11152344 9.99921875 5.28554687 10.8359375 5.46484375 C13 6 13 6 15 7 C15 7.66 15 8.32 15 9 C17.97 9.495 17.97 9.495 21 10 C21.33 10.99 21.66 11.98 22 13 C18.11378765 12.17772837 14.48208738 10.73736602 10.8125 9.25 C10.17119141 9.01023438 9.52988281 8.77046875 8.86914062 8.5234375 C7.01953125 7.765625 7.01953125 7.765625 4 6 C3.07421875 3.296875 3.07421875 3.296875 3 1 C0.525 2.485 0.525 2.485 -2 4 C-1.34 2.68 -0.68 1.36 0 0 Z " fill="#D6E5EC" transform="translate(393,140)"/>
<path d="M0 0 C0.391875 0.53625 0.78375 1.0725 1.1875 1.625 C4.9717455 7.0322677 4.9717455 7.0322677 10 11 C10 11.99 10 12.98 10 14 C8.54207116 14.05399736 7.08357288 14.09279177 5.625 14.125 C4.81289063 14.14820312 4.00078125 14.17140625 3.1640625 14.1953125 C1 14 1 14 -1 12 C0.65 11.67 2.3 11.34 4 11 C3.525625 10.67 3.05125 10.34 2.5625 10 C0.14208385 6.90186733 0.31801083 3.87973208 0 0 Z " fill="#F5D7D7" transform="translate(308,60)"/>
<path d="M0 0 C-18.29011431 8.64934378 -18.29011431 8.64934378 -25 8 C-22.33045304 4.58025189 -19.21676608 4.00585753 -15.125 2.9375 C-10.10001976 1.62137293 -10.10001976 1.62137293 -5.2421875 -0.18359375 C-3 -1 -3 -1 0 0 Z " fill="#D8E9EF" transform="translate(370,165)"/>
<path d="M0 0 C2.7019433 0.36512747 4.58390852 0.69869237 6.8125 2.3125 C8 4 8 4 8 8 C8.99 8 9.98 8 11 8 C11.33 7.01 11.66 6.02 12 5 C12 6.32 12 7.64 12 9 C11.34 9 10.68 9 10 9 C9.67 9.99 9.34 10.98 9 12 C4.33757858 8.59769248 1.82626485 5.47879455 0 0 Z " fill="#C9E1E6" transform="translate(258,78)"/>
<path d="M0 0 C0.33 0 0.66 0 1 0 C1.09796875 0.82242188 1.1959375 1.64484375 1.296875 2.4921875 C2.28408082 9.86218954 3.86287541 16.25365926 7 23 C6.01 23.33 5.02 23.66 4 24 C3.15960114 21.41877492 2.32749444 18.83536099 1.5 16.25 C1.26152344 15.52039063 1.02304688 14.79078125 0.77734375 14.0390625 C0.55175781 13.33007812 0.32617188 12.62109375 0.09375 11.890625 C-0.22045898 10.91657715 -0.22045898 10.91657715 -0.54101562 9.92285156 C-1 8 -1 8 -1 4 C-1.66 3.67 -2.32 3.34 -3 3 C-2.01 3 -1.02 3 0 3 C0 2.01 0 1.02 0 0 Z " fill="#92BBCF" transform="translate(242,70)"/>
<path d="M0 0 C2.83474672 5.26452963 4.25712542 10.05883378 4.1953125 16.0546875 C4.18564453 17.71757813 4.18564453 17.71757813 4.17578125 19.4140625 C4.15902344 20.55617188 4.14226562 21.69828125 4.125 22.875 C4.11597656 24.0403125 4.10695313 25.205625 4.09765625 26.40625 C4.07417432 29.27104577 4.04133141 32.13541535 4 35 C3.67 35 3.34 35 3 35 C3 27.41 3 19.82 3 12 C2.34 12 1.68 12 1 12 C0.03929566 9.11788698 -0.10581883 7.30149956 -0.0625 4.3125 C-0.05347656 3.50425781 -0.04445313 2.69601563 -0.03515625 1.86328125 C-0.02355469 1.24839844 -0.01195312 0.63351563 0 0 Z " fill="#DAAFB2" transform="translate(321,107)"/>
<path d="M0 0 C0.99 0.33 1.98 0.66 3 1 C2.34 1.66 1.68 2.32 1 3 C0.32517578 3.67675781 0.32517578 3.67675781 -0.36328125 4.3671875 C-1.5848075 5.58579841 -2.8123568 6.79837743 -4.04296875 8.0078125 C-4.75066406 8.70648438 -5.45835937 9.40515625 -6.1875 10.125 C-6.86167969 10.78757812 -7.53585938 11.45015625 -8.23046875 12.1328125 C-10.17553358 14.07943317 -10.17553358 14.07943317 -12 17 C-12.3046875 14.296875 -12.3046875 14.296875 -12 11 C-9.8828125 8.515625 -9.8828125 8.515625 -7.125 6.25 C-6.22007812 5.49203125 -5.31515625 4.7340625 -4.3828125 3.953125 C-3.59648437 3.30859375 -2.81015625 2.6640625 -2 2 C-1.34 1.34 -0.68 0.68 0 0 Z " fill="#3AA1AB" transform="translate(238,74)"/>
<path d="M0 0 C4.41279437 0.41369947 7.2546294 2.29172383 10.86328125 4.65625 C14.12036305 6.70457932 17.5360241 8.32986876 21 10 C21 10.66 21 11.32 21 12 C17.22321016 10.53936305 13.5766211 8.90085429 9.9375 7.125 C8.91527344 6.63257813 7.89304687 6.14015625 6.83984375 5.6328125 C4.05452649 4.03135086 2.14250486 2.37371042 0 0 Z " fill="#DAE8EF" transform="translate(293,158)"/>
<path d="M0 0 C4.01018103 1.38952413 6.90032723 3.26698294 10.1875 5.9375 C11.04730469 6.62714844 11.90710938 7.31679688 12.79296875 8.02734375 C15 10 15 10 17 13 C12.08023645 12.57830598 10.3281855 10.48667052 7 7 C5.74583448 6.08097683 4.47439507 5.18510289 3.1875 4.3125 C2.135625 3.549375 1.08375 2.78625 0 2 C0 1.34 0 0.68 0 0 Z " fill="#D6E6EC" transform="translate(362,56)"/>
<path d="M0 0 C1.35714063 3.66427971 0.52286834 5.50636088 -1 9 C-1 9.99 -1 10.98 -1 12 C0.32 12.33 1.64 12.66 3 13 C2.38125 13.5775 1.7625 14.155 1.125 14.75 C-0.81347053 16.80249821 -1.90014249 18.43366582 -3 21 C-4.76733042 13.93067832 -3.25278992 6.50557984 0 0 Z " fill="#B2A4AC" transform="translate(365,34)"/>
<path d="M0 0 C2.1875 1.51953125 2.1875 1.51953125 4 3 C3.35933594 2.94199219 2.71867187 2.88398437 2.05859375 2.82421875 C-4.78032221 2.46749437 -7.84685142 3.49099499 -13 8 C-13.66 8.66 -14.32 9.32 -15 10 C-14.67193728 6.96541983 -14.46210789 5.43023838 -12.1875 3.3125 C-11.465625 2.879375 -10.74375 2.44625 -10 2 C-9.071875 1.4121875 -9.071875 1.4121875 -8.125 0.8125 C-5.24063813 -0.29034425 -3.06466219 -0.31923564 0 0 Z " fill="#F7DBDC" transform="translate(324,35)"/>
<path d="M0 0 C0.66 0 1.32 0 2 0 C2.33 2.97 2.66 5.94 3 9 C-2.12919186 11.10428384 -6.5610835 11.21755666 -12 11 C-11.34 9.68 -10.68 8.36 -10 7 C-9.67 7.66 -9.34 8.32 -9 9 C-5.7 8.67 -2.4 8.34 1 8 C0.67 5.36 0.34 2.72 0 0 Z " fill="#E9E5EB" transform="translate(350,150)"/>
<path d="M0 0 C1.98 0.66 3.96 1.32 6 2 C6 2.66 6 3.32 6 4 C6.845625 4.103125 7.69125 4.20625 8.5625 4.3125 C12.41442701 5.0828854 15.44075031 6.36274514 19 8 C15.67054967 9.66472516 12.40264864 8.00951181 9 7 C8.25105469 6.78085938 7.50210937 6.56171875 6.73046875 6.3359375 C4.5625 5.625 4.5625 5.625 1 4 C0.27734375 1.8984375 0.27734375 1.8984375 0 0 Z " fill="#C3DBE4" transform="translate(414,150)"/>
<path d="M0 0 C0.33 0 0.66 0 1 0 C1 4.29 1 8.58 1 13 C1.66 13 2.32 13 3 13 C3.33 17.29 3.66 21.58 4 26 C0.78920745 19.57841489 -0.25183925 14.22891757 -0.125 7.0625 C-0.11597656 6.37865234 -0.10695313 5.69480469 -0.09765625 4.99023438 C-0.07438958 3.32666713 -0.03853167 1.66328369 0 0 Z " fill="#C8D9E3" transform="translate(279,98)"/>
<path d="M0 0 C2.475 0.495 2.475 0.495 5 1 C5 4.96 5 8.92 5 13 C4.67 12.34 4.34 11.68 4 11 C3.34 11 2.68 11 2 11 C2 7.7 2 4.4 2 1 C1.34 0.67 0.68 0.34 0 0 Z " fill="#D4BFC7" transform="translate(303,47)"/>
<path d="M0 0 C9.84226785 0.62184263 9.84226785 0.62184263 14 4 C14.33 4.99 14.66 5.98 15 7 C14.34 7 13.68 7 13 7 C13 6.34 13 5.68 13 5 C11.96875 4.896875 10.9375 4.79375 9.875 4.6875 C6.04916055 4.00872203 3.36629975 2.88841205 0 1 C0 0.67 0 0.34 0 0 Z " fill="#D2E3EC" transform="translate(427,158)"/>
<path d="M0 0 C1.9375 0.6875 1.9375 0.6875 4 2 C5.07936073 5.77776257 5.10545718 9.40339702 5.0625 13.3125 C5.05347656 14.38113281 5.04445313 15.44976562 5.03515625 16.55078125 C5.02355469 17.35902344 5.01195312 18.16726562 5 19 C4.67 19 4.34 19 4 19 C3.87882812 18.13117188 3.75765625 17.26234375 3.6328125 16.3671875 C3.46523438 15.21476562 3.29765625 14.06234375 3.125 12.875 C2.96257812 11.73804687 2.80015625 10.60109375 2.6328125 9.4296875 C2.02568583 6.13921085 1.13654367 3.14220897 0 0 Z " fill="#DCEDF2" transform="translate(386,85)"/>
<path d="M0 0 C0.66 2.64 1.32 5.28 2 8 C-0.51083114 6.74458443 -0.87125446 5.49936512 -2 3 C-3.11375 3.680625 -4.2275 4.36125 -5.375 5.0625 C-7.2734375 6.22265625 -7.2734375 6.22265625 -9 7 C-9.66 6.67 -10.32 6.34 -11 6 C-9.92781799 4.98805294 -8.84173622 3.99081943 -7.75 3 C-7.14671875 2.443125 -6.5434375 1.88625 -5.921875 1.3125 C-4 0 -4 0 0 0 Z " fill="#D1D9E0" transform="translate(307,58)"/>
<path d="M0 0 C1 2 1 2 0.36328125 4.09375 C0.01652344 4.8878125 -0.33023437 5.681875 -0.6875 6.5 C-1.02136719 7.2940625 -1.35523438 8.088125 -1.69921875 8.90625 C-3.19558554 11.31481637 -4.3924752 11.98992724 -7 13 C-5.87030761 7.02876881 -4.47019457 4.24095382 0 0 Z " fill="#E9CCCB" transform="translate(346,145)"/>
<path d="M0 0 C3.08917348 0.3432415 4.77105979 0.82193539 7.25 2.75 C9.17806461 5.22894021 9.6567585 6.91082652 10 10 C8 8.625 8 8.625 6 7 C6 6.34 6 5.68 6 5 C5.38125 4.731875 4.7625 4.46375 4.125 4.1875 C2 3 2 3 0 0 Z " fill="#F5D7D4" transform="translate(303,87)"/>
<path d="M0 0 C2.97 0 5.94 0 9 0 C9.36923077 7.38461538 9.36923077 7.38461538 7.5 10.5 C7.005 10.995 6.51 11.49 6 12 C6.144375 11.29875 6.28875 10.5975 6.4375 9.875 C7.01478375 6.92443859 7.51695141 3.96729849 8 1 C6.68528432 1.28151087 5.37324233 1.57553339 4.0625 1.875 C3.33160156 2.03742188 2.60070312 2.19984375 1.84765625 2.3671875 C-0.20700294 2.82961523 -0.20700294 2.82961523 -1 5 C-0.67 3.35 -0.34 1.7 0 0 Z " fill="#67ADB8" transform="translate(274,81)"/>
<path d="M0 0 C0.66 0 1.32 0 2 0 C0.66666667 4 -0.66666667 8 -2 12 C-2.66 12 -3.32 12 -4 12 C-3.53680089 7.27536912 -2.90108294 3.82942948 0 0 Z " fill="#D7E9F0" transform="translate(465,157)"/>
<path d="M0 0 C0.50958519 2.03834076 1.01372981 4.06668764 1.4375 6.125 C1.90475673 8.22082328 1.90475673 8.22082328 4 10 C4.125 12.625 4.125 12.625 4 15 C0.48086773 12.65391182 -0.23121854 10.76827355 -2 7 C-2.66 6.01 -3.32 5.02 -4 4 C-3.01 3.67 -2.02 3.34 -1 3 C-0.67 2.01 -0.34 1.02 0 0 Z " fill="#8AB8CC" transform="translate(272,86)"/>
<path d="M0 0 C0.33 0.99 0.66 1.98 1 3 C-1.97 5.97 -4.94 8.94 -8 12 C-8.99 11.67 -9.98 11.34 -11 11 C-9.625 9.5 -9.625 9.5 -8 8 C-7.34 8 -6.68 8 -6 8 C-5.67 7.01 -5.34 6.02 -5 5 C-4.34 5 -3.68 5 -3 5 C-2.67 4.01 -2.34 3.02 -2 2 C-1.34 2 -0.68 2 0 2 C0 1.34 0 0.68 0 0 Z " fill="#DDEBF0" transform="translate(294,50)"/>
<path d="M0 0 C0.6875 1.75 0.6875 1.75 1 4 C-0.3125 6.25 -0.3125 6.25 -2 8 C-2.66 8 -3.32 8 -4 8 C-4 7.01 -4 6.02 -4 5 C-6.31 4.67 -8.62 4.34 -11 4 C-11 3.67 -11 3.34 -11 3 C-10.06027344 3.05220703 -10.06027344 3.05220703 -9.1015625 3.10546875 C-8.28429687 3.13253906 -7.46703125 3.15960938 -6.625 3.1875 C-5.40683594 3.23970703 -5.40683594 3.23970703 -4.1640625 3.29296875 C-3.44992187 3.19628906 -2.73578125 3.09960938 -2 3 C-1.34 2.01 -0.68 1.02 0 0 Z " fill="#E4DAE0" transform="translate(353,35)"/>
<path d="M0 0 C2.29013653 3.4352048 2.17842973 4.985331 2 9 C2.99 9.33 3.98 9.66 5 10 C3.625 11.5 3.625 11.5 2 13 C1.34 13 0.68 13 0 13 C0 8.71 0 4.42 0 0 Z " fill="#E4D8DB" transform="translate(372,135)"/>
<path d="M0 0 C-3.12343663 2.08229108 -3.53852922 2.23770457 -7.01171875 1.9765625 C-7.76904297 1.925 -8.52636719 1.8734375 -9.30664062 1.8203125 C-10.48516602 1.72363281 -10.48516602 1.72363281 -11.6875 1.625 C-12.48478516 1.56828125 -13.28207031 1.5115625 -14.10351562 1.453125 C-16.06973581 1.31183972 -18.03498824 1.15720094 -20 1 C-20 0.67 -20 0.34 -20 0 C-17.41703983 -0.19522373 -14.83395921 -0.38144403 -12.25 -0.5625 C-11.52039063 -0.61857422 -10.79078125 -0.67464844 -10.0390625 -0.73242188 C-6.45046349 -0.97709908 -3.44972775 -0.99666259 0 0 Z " fill="#B3CBDA" transform="translate(348,171)"/>
<path d="M0 0 C1.79398884 0.25499841 3.58520875 0.52953814 5.375 0.8125 C6.87160156 1.03873047 6.87160156 1.03873047 8.3984375 1.26953125 C11 2 11 2 13 5 C15.05003955 6.19232613 15.05003955 6.19232613 17 7 C16.01 7.495 16.01 7.495 15 8 C12.64018187 7.06421005 10.30368736 6.06652192 8 5 C8 4.34 8 3.68 8 3 C6.865625 2.87625 5.73125 2.7525 4.5625 2.625 C3.386875 2.41875 2.21125 2.2125 1 2 C0.67 1.34 0.34 0.68 0 0 Z " fill="#ADCBD5" transform="translate(449,142)"/>
<path d="M0 0 C1.63001953 0.01353516 1.63001953 0.01353516 3.29296875 0.02734375 C4.12441406 0.03894531 4.95585937 0.05054688 5.8125 0.0625 C5.8125 0.3925 5.8125 0.7225 5.8125 1.0625 C2.5125 1.0625 -0.7875 1.0625 -4.1875 1.0625 C-3.5275 2.3825 -2.8675 3.7025 -2.1875 5.0625 C-2.8475 5.7225 -3.5075 6.3825 -4.1875 7.0625 C-5.8375 5.0825 -7.4875 3.1025 -9.1875 1.0625 C-5.90230525 -0.03256492 -3.45086585 -0.03710608 0 0 Z " fill="#ADABB4" transform="translate(338.1875,38.9375)"/>
<path d="M0 0 C0.66 0.33 1.32 0.66 2 1 C1.21085079 2.60540659 0.41858235 4.20928016 -0.375 5.8125 C-0.81585938 6.70582031 -1.25671875 7.59914063 -1.7109375 8.51953125 C-3 11 -3 11 -5 14 C-4.64989059 4.82713348 -4.64989059 4.82713348 -1.9375 1.375 C-1.298125 0.92125 -0.65875 0.4675 0 0 Z " fill="#F1D4D9" transform="translate(370,28)"/>
<path d="M0 0 C3.49498124 1.26207656 6.04657136 2.78492852 9 5 C10.64797236 5.71162443 12.31165408 6.39031953 14 7 C11.40927388 7.97226335 10.30300917 8.11611108 7.67578125 7.109375 C6.89589844 6.66078125 6.11601562 6.2121875 5.3125 5.75 C4.52488281 5.31171875 3.73726563 4.8734375 2.92578125 4.421875 C1 3 1 3 0 0 Z " fill="#E2EFF4" transform="translate(301,148)"/>
<path d="M0 0 C2.52940738 3.13164723 4.44920018 6.27808042 6 10 C5.6875 12.375 5.6875 12.375 5 14 C4.54625 13.236875 4.0925 12.47375 3.625 11.6875 C2.46175508 9.76367186 1.2470585 7.87058776 0 6 C-0.125 2.8125 -0.125 2.8125 0 0 Z " fill="#C4DBE3" transform="translate(270,120)"/>
<path d="M0 0 C0.5259375 0.7425 0.5259375 0.7425 1.0625 1.5 C3.94374289 3.73063966 6.47009026 3.19980621 10 3 C10 3.99 10 4.98 10 6 C7.27958849 6.75566986 5.4981783 7.13838286 2.75 6.375 C1 5 1 5 0.25 2.375 C0.1675 1.59125 0.085 0.8075 0 0 Z " fill="#CADAE3" transform="translate(246,113)"/>
<path d="M0 0 C7.66742597 5.96583144 7.66742597 5.96583144 9 11 C5.77651004 9.92550335 4.95861919 9.13675431 2.8125 6.625 C2.28269531 6.01914063 1.75289062 5.41328125 1.20703125 4.7890625 C0 3 0 3 0 0 Z " fill="#DCEBEF" transform="translate(224,90)"/>
<path d="M0 0 C2.48862878 3.23521742 4.75421558 6.59260295 7 10 C4.625 9.8125 4.625 9.8125 2 9 C0.13992075 5.72271751 0 3.8340246 0 0 Z " fill="#DFB7BA" transform="translate(308,60)"/>
<path d="M0 0 C3.78717347 1.48781815 5.77407001 3.61988409 8 7 C7.67 7.99 7.34 8.98 7 10 C5.82739389 8.71372289 4.6620717 7.42080217 3.5 6.125 C2.8503125 5.40570313 2.200625 4.68640625 1.53125 3.9453125 C0 2 0 2 0 0 Z " fill="#DBEDF1" transform="translate(383,57)"/>
<path d="M0 0 C0.66 0.33 1.32 0.66 2 1 C-2.02167317 3.96837781 -5.00088076 5.52389341 -10 6 C-7.31100548 2.67830089 -3.94687492 1.43522725 0 0 Z " fill="#C7DAE4" transform="translate(375,159)"/>
<path d="M0 0 C0.99 0.495 0.99 0.495 2 1 C2 1.66 2 2.32 2 3 C2.928125 3.37125 2.928125 3.37125 3.875 3.75 C6.35068687 5.20628639 6.95125002 6.37812506 8 9 C5 9 5 9 2.875 7.3125 C0.83027036 4.79066678 0.35401103 3.18609925 0 0 Z " fill="#CBDDE4" transform="translate(232,98)"/>
<path d="M0 0 C-0.33 1.65 -0.66 3.3 -1 5 C-1.33 4.01 -1.66 3.02 -2 2 C-3.98 2.99 -5.96 3.98 -8 5 C-8 4.01 -8 3.02 -8 2 C-4.77208445 -0.1519437 -3.71599191 -0.20086443 0 0 Z " fill="#F0E3E4" transform="translate(376,19)"/>
<path d="M0 0 C4.87664009 -0.34833144 7.77050005 0.58314288 12 3 C8.18029984 4.46911544 5.69358471 3.52561108 2 2 C1.34 1.34 0.68 0.68 0 0 Z " fill="#D3E3EB" transform="translate(408,124)"/>
<path d="M0 0 C0.33 0.99 0.66 1.98 1 3 C-1.97180943 4.89865603 -4.51460083 6.35455571 -8 7 C-8 6.34 -8 5.68 -8 5 C-6.25 3.7109375 -6.25 3.7109375 -4 2.375 C-3.2575 1.92898437 -2.515 1.48296875 -1.75 1.0234375 C-1.1725 0.68570313 -0.595 0.34796875 0 0 Z " fill="#DEE9F0" transform="translate(241,70)"/>
<path d="M0 0 C1.48206495 0.254496 2.96068615 0.52911762 4.4375 0.8125 C5.67306641 1.03873047 5.67306641 1.03873047 6.93359375 1.26953125 C7.95646484 1.63111328 7.95646484 1.63111328 9 2 C9.33 2.99 9.66 3.98 10 5 C6.33118845 4.29445932 3.29549466 2.72264494 0 1 C0 0.67 0 0.34 0 0 Z " fill="#DDEDF3" transform="translate(405,148)"/>
<path d="M0 0 C0.33 1.32 0.66 2.64 1 4 C0.34 4 -0.32 4 -1 4 C-1.33 4.99 -1.66 5.98 -2 7 C-3.65 5.68 -5.3 4.36 -7 3 C-6.67 2.34 -6.34 1.68 -6 1 C-4.02 1.66 -2.04 2.32 0 3 C0 2.01 0 1.02 0 0 Z " fill="#88BFCA" transform="translate(269,83)"/>
<path d="M0 0 C0.33 0.66 0.66 1.32 1 2 C-1.97 2 -4.94 2 -8 2 C-8 1.34 -8 0.68 -8 0 C-4.69693408 -1.10102197 -3.28414305 -0.95067299 0 0 Z " fill="#D6E5EC" transform="translate(250,68)"/>
<path d="M0 0 C2.91488977 2.6234008 4.88503898 5.71816394 7 9 C6.01 9 5.02 9 4 9 C4 8.34 4 7.68 4 7 C3.01 6.67 2.02 6.34 1 6 C0.67 4.02 0.34 2.04 0 0 Z " fill="#CBDEE7" transform="translate(280,141)"/>
<path d="M0 0 C3.96 1.98 3.96 1.98 8 4 C8 4.33 8 4.66 8 5 C6.02 5 4.04 5 2 5 C1.34 3.35 0.68 1.7 0 0 Z " fill="#E5C1C6" transform="translate(298,82)"/>
<path d="M0 0 C1.65 1.32 3.3 2.64 5 4 C4.67 4.99 4.34 5.98 4 7 C2 5.75 2 5.75 0 4 C0 2.68 0 1.36 0 0 Z " fill="#C3DEE5" transform="translate(296,143)"/>
<path d="M0 0 C0.33 0.99 0.66 1.98 1 3 C0.67 3.66 0.34 4.32 0 5 C-1.98 5 -3.96 5 -6 5 C-2.25 1.125 -2.25 1.125 0 0 Z " fill="#F7E4E9" transform="translate(337,69)"/>
<path d="M0 0 C0.66 0 1.32 0 2 0 C2.33 2.64 2.66 5.28 3 8 C2.34 7.67 1.68 7.34 1 7 C1 6.34 1 5.68 1 5 C0.34 5 -0.32 5 -1 5 C-0.67 3.35 -0.34 1.7 0 0 Z " fill="#C5D2D7" transform="translate(224,85)"/>
<path d="M0 0 C0.66 0.33 1.32 0.66 2 1 C2 2.65 2 4.3 2 6 C1.01 6 0.02 6 -1 6 C-1.33 4.35 -1.66 2.7 -2 1 C-1.34 0.67 -0.68 0.34 0 0 Z " fill="#22A9B0" transform="translate(267,80)"/>
<path d="M0 0 C2.475 0.495 2.475 0.495 5 1 C5 3.64 5 6.28 5 9 C4.67 9 4.34 9 4 9 C3.87882812 8.43410156 3.75765625 7.86820313 3.6328125 7.28515625 C3.38144531 6.18494141 3.38144531 6.18494141 3.125 5.0625 C2.96257812 4.33160156 2.80015625 3.60070313 2.6328125 2.84765625 C2.17038477 0.79299706 2.17038477 0.79299706 0 0 Z " fill="#B6A1A7" transform="translate(303,47)"/>
<path d="M0 0 C0.99 0.33 1.98 0.66 3 1 C2.01 2.98 1.02 4.96 0 7 C-0.66 6.01 -1.32 5.02 -2 4 C-1.34 2.68 -0.68 1.36 0 0 Z " fill="#C1ABB5" transform="translate(348,43)"/>
</svg>
