<?xml version="1.0" encoding="UTF-8"?>
<svg version="1.1" xmlns="http://www.w3.org/2000/svg" width="125" height="64">
<path d="M0 0 C1.65 0 3.3 0 5 0 C6.73956658 1.73956658 6.37190386 4.1936622 6.5625 6.5625 C6.64628906 7.57441406 6.73007812 8.58632812 6.81640625 9.62890625 C6.87699219 10.41136719 6.93757813 11.19382812 7 12 C7.66 11.34 8.32 10.68 9 10 C11.72869407 10.03287583 14.2966618 10.56397771 17 11 C17.226875 10.38125 17.45375 9.7625 17.6875 9.125 C19.37929835 6.38589791 20.99244161 5.94975528 24 5 C24 4.34 24 3.68 24 3 C25.3921875 3.3403125 25.3921875 3.3403125 26.8125 3.6875 C27.864375 3.790625 28.91625 3.89375 30 4 C31.64594139 2.60411246 31.64594139 2.60411246 33 1 C34.32 1 35.64 1 37 1 C36.67 2.98 36.34 4.96 36 7 C36.598125 7.185625 37.19625 7.37125 37.8125 7.5625 C41.10610133 9.72686659 41.75851019 12.33760506 43 16 C43.1875 18.9375 43.1875 18.9375 43 21 C43.70125 21.103125 44.4025 21.20625 45.125 21.3125 C48.39137647 22.09359003 51.0471852 23.42058743 54 25 C54.04254356 26.99954746 54.04080783 29.00041636 54 31 C53.505 31.495 53.505 31.495 53 32 C46.78061224 31.41326531 46.78061224 31.41326531 43.875 29.875 C41.25675781 28.65315365 39.70437364 29.14598727 37 30 C36.34 30.66 35.68 31.32 35 32 C34.01 32 33.02 32 32 32 C33.32 34.31 34.64 36.62 36 39 C36.33 38.67 36.66 38.34 37 38 C38.99609375 37.83203125 38.99609375 37.83203125 41.4375 37.8125 C42.24058594 37.79832031 43.04367188 37.78414062 43.87109375 37.76953125 C46 38 46 38 48 40 C48.99 39.01 48.99 39.01 50 38 C52.3125 37.8046875 52.3125 37.8046875 55 37.875 C55.886875 37.89304688 56.77375 37.91109375 57.6875 37.9296875 C58.8321875 37.96449219 58.8321875 37.96449219 60 38 C60.66 38 61.32 38 62 38 C70 38 78 38 86 38 C86.58984375 40.41015625 86.58984375 40.41015625 87 43 C86 44 85 45 84 46 C83.74951364 49.12549017 83.74951364 49.12549017 84 52 C80.61981469 53.04005702 77.5219721 53.08004482 74 53 C74 52.34 74 51.68 74 51 C73.01 51.66 72.02 52.32 71 53 C68.42089779 53.1835102 65.9526994 53.25623635 63.375 53.23046875 C62.2600415 53.22978142 62.2600415 53.22978142 61.12255859 53.2290802 C59.5523926 53.22606176 57.98222949 53.21818762 56.41210938 53.20581055 C54.00900662 53.18756837 51.60628974 53.18530085 49.203125 53.18554688 C47.67708 53.1806308 46.15103762 53.17480209 44.625 53.16796875 C43.54677979 53.16629951 43.54677979 53.16629951 42.44677734 53.16459656 C39.36196417 53.1352573 36.94950513 52.98316838 34 52 C31.21174227 52.20858722 28.46309343 52.57561896 25.69140625 52.94140625 C22.80377486 53.00427196 21.42200306 52.50587897 19 51 C18.54625 51.804375 18.0925 52.60875 17.625 53.4375 C16 56 16 56 14 57 C12.00039988 57.039992 9.99952758 57.04346799 8 57 C7.67 56.01 7.34 55.02 7 54 C4.45360937 52.72680468 2.93481572 53.0013869 0.0625 53.0625 C-3 53 -3 53 -6 52 C-6.99 52.495 -6.99 52.495 -8 53 C-10.84352821 53.09825199 -13.65702042 53.13900483 -16.5 53.125 C-17.28503906 53.12886719 -18.07007813 53.13273437 -18.87890625 53.13671875 C-24.74669213 53.12665394 -24.74669213 53.12665394 -27 52 C-27.02690104 49.20826945 -27.04679053 46.41679652 -27.0625 43.625 C-27.07087891 42.8309375 -27.07925781 42.036875 -27.08789062 41.21875 C-27.11328125 35.2265625 -27.11328125 35.2265625 -26 33 C-21.71 33 -17.42 33 -13 33 C-13 33.66 -13 34.32 -13 35 C-11.68 35 -10.36 35 -9 35 C-8.67 37.31 -8.34 39.62 -8 42 C-7.608125 41.34902344 -7.21625 40.69804688 -6.8125 40.02734375 C-5 38 -5 38 -2.625 37.50390625 C-1.75875 37.52324219 -0.8925 37.54257812 0 37.5625 C0.86625 37.56378906 1.7325 37.56507812 2.625 37.56640625 C5.37563053 38.06857728 6.2724894 38.85765955 8 41 C8.12375 40.05125 8.2475 39.1025 8.375 38.125 C9 35 9 35 11 33 C13.625 32.875 13.625 32.875 16 33 C16 33.66 16 34.32 16 35 C17.98 35 19.96 35 22 35 C22 34.01 22 33.02 22 32 C20.36739286 30.62517293 18.69774938 29.29352333 17 28 C15 25 15 25 15 22 C14.01 22.33 13.02 22.66 12 23 C10.35 21.35 8.7 19.7 7 18 C6.90912109 19.37285156 6.90912109 19.37285156 6.81640625 20.7734375 C6.73261719 21.96195313 6.64882813 23.15046875 6.5625 24.375 C6.48128906 25.55835937 6.40007813 26.74171875 6.31640625 27.9609375 C6 31 6 31 5 33 C3.35 32.67 1.7 32.34 0 32 C0 21.44 0 10.88 0 0 Z M35 14 C35.33 16.64 35.66 19.28 36 22 C36.33 22 36.66 22 37 22 C37 19.36 37 16.72 37 14 C36.34 14 35.68 14 35 14 Z M20 16 C19.76571687 20.7897321 19.76571687 20.7897321 22 25 C22.66 25 23.32 25 24 25 C24.33397787 22.12586875 24.33397787 22.12586875 24 19 C22.11922127 17.08743288 22.11922127 17.08743288 20 16 Z M8 44 C7.67 45.98 7.34 47.96 7 50 C7.66 50 8.32 50 9 50 C9 48.02 9 46.04 9 44 C8.67 44 8.34 44 8 44 Z M72 45 C72 45.66 72 46.32 72 47 C72.66 47 73.32 47 74 47 C74 46.34 74 45.68 74 45 C73.34 45 72.68 45 72 45 Z " fill="#01071F" transform="translate(34,1)"/>
<path d="M0 0 C1.65 0 3.3 0 5 0 C6.73956658 1.73956658 6.37190386 4.1936622 6.5625 6.5625 C6.64628906 7.57441406 6.73007812 8.58632812 6.81640625 9.62890625 C6.87699219 10.41136719 6.93757813 11.19382812 7 12 C7.66 11.34 8.32 10.68 9 10 C11.72869407 10.03287583 14.2966618 10.56397771 17 11 C17.226875 10.38125 17.45375 9.7625 17.6875 9.125 C19.37929835 6.38589791 20.99244161 5.94975528 24 5 C24 4.34 24 3.68 24 3 C24.928125 3.226875 25.85625 3.45375 26.8125 3.6875 C27.864375 3.790625 28.91625 3.89375 30 4 C31.64594139 2.60411246 31.64594139 2.60411246 33 1 C34.32 1 35.64 1 37 1 C36.67 2.98 36.34 4.96 36 7 C36.598125 7.185625 37.19625 7.37125 37.8125 7.5625 C41.10610133 9.72686659 41.75851019 12.33760506 43 16 C43.1875 18.9375 43.1875 18.9375 43 21 C43.70125 21.103125 44.4025 21.20625 45.125 21.3125 C48.39137647 22.09359003 51.0471852 23.42058743 54 25 C54.04254356 26.99954746 54.04080783 29.00041636 54 31 C53.505 31.495 53.505 31.495 53 32 C46.78061224 31.41326531 46.78061224 31.41326531 43.875 29.875 C41.20704977 28.62995656 39.77292237 29.12078071 37 30 C36.21625 30.515625 35.4325 31.03125 34.625 31.5625 C31.15332388 33.46365597 28.91453495 33.41205631 25 33 C20.34843467 31.2670639 17.70803094 29.16620145 15 25 C15 24.01 15 23.02 15 22 C14.01 22.33 13.02 22.66 12 23 C10.35 21.35 8.7 19.7 7 18 C6.93941406 18.91523438 6.87882812 19.83046875 6.81640625 20.7734375 C6.73261719 21.96195313 6.64882813 23.15046875 6.5625 24.375 C6.48128906 25.55835937 6.40007813 26.74171875 6.31640625 27.9609375 C6 31 6 31 5 33 C3.35 32.67 1.7 32.34 0 32 C0 21.44 0 10.88 0 0 Z M35 14 C35.33 16.64 35.66 19.28 36 22 C36.33 22 36.66 22 37 22 C37 19.36 37 16.72 37 14 C36.34 14 35.68 14 35 14 Z M20 16 C19.76571687 20.7897321 19.76571687 20.7897321 22 25 C22.66 25 23.32 25 24 25 C24.33397787 22.12586875 24.33397787 22.12586875 24 19 C22.11922127 17.08743288 22.11922127 17.08743288 20 16 Z " fill="#51B0B9" transform="translate(34,1)"/>
<path d="M0 0 C4.29 0 8.58 0 13 0 C13 0.66 13 1.32 13 2 C14.32 2 15.64 2 17 2 C17.33 4.31 17.66 6.62 18 9 C18.391875 8.34902344 18.78375 7.69804688 19.1875 7.02734375 C21 5 21 5 23.375 4.50390625 C24.674375 4.53291016 24.674375 4.53291016 26 4.5625 C26.86625 4.56378906 27.7325 4.56507812 28.625 4.56640625 C31.37563053 5.06857728 32.2724894 5.85765955 34 8 C34.185625 6.576875 34.185625 6.576875 34.375 5.125 C35 2 35 2 37 0 C39.625 -0.125 39.625 -0.125 42 0 C42 0.66 42 1.32 42 2 C42.66 2 43.32 2 44 2 C44.10806144 4.91765891 44.18732877 7.83131125 44.25 10.75 C44.30027344 11.9875 44.30027344 11.9875 44.3515625 13.25 C44.45016823 19.36355526 44.45016823 19.36355526 42.1875 22.5625 C39.33225607 24.43880316 37.34731984 24.3043018 34 24 C33.505 22.515 33.505 22.515 33 21 C30.45360937 19.72680468 28.93481572 20.0013869 26.0625 20.0625 C23 20 23 20 20 19 C19.34 19.33 18.68 19.66 18 20 C15.15647179 20.09825199 12.34297958 20.13900483 9.5 20.125 C8.71496094 20.12886719 7.92992187 20.13273437 7.12109375 20.13671875 C1.25330787 20.12665394 1.25330787 20.12665394 -1 19 C-1.02690104 16.20826945 -1.04679053 13.41679652 -1.0625 10.625 C-1.07087891 9.8309375 -1.07925781 9.036875 -1.08789062 8.21875 C-1.11328125 2.2265625 -1.11328125 2.2265625 0 0 Z M34 11 C33.67 12.98 33.34 14.96 33 17 C33.66 17 34.32 17 35 17 C35 15.02 35 13.04 35 11 C34.67 11 34.34 11 34 11 Z " fill="#00A6AB" transform="translate(8,34)"/>
<path d="M0 0 C1.23556641 0.01740234 1.23556641 0.01740234 2.49609375 0.03515625 C3.32238281 0.04417969 4.14867188 0.05320312 5 0.0625 C5.63808594 0.07410156 6.27617188 0.08570313 6.93359375 0.09765625 C10.11541193 18.73401989 10.11541193 18.73401989 7.93359375 23.09765625 C5.8671875 23.51171875 5.8671875 23.51171875 3.37109375 23.72265625 C2.54480469 23.79742188 1.71851563 23.8721875 0.8671875 23.94921875 C-0.08994141 24.02269531 -0.08994141 24.02269531 -1.06640625 24.09765625 C-1.17597656 23.19402344 -1.28554688 22.29039063 -1.3984375 21.359375 C-1.55699219 20.17988281 -1.71554688 19.00039063 -1.87890625 17.78515625 C-2.10513672 16.02751953 -2.10513672 16.02751953 -2.3359375 14.234375 C-3.0650562 11.10345351 -3.55812089 10.00120432 -6.06640625 8.09765625 C-5.07640625 7.43765625 -4.08640625 6.77765625 -3.06640625 6.09765625 C-2.89968773 3.55588555 -2.89968773 3.55588555 -3.06640625 1.09765625 C-2.06640625 0.09765625 -2.06640625 0.09765625 0 0 Z " fill="#2F3044" transform="translate(60.06640625,5.90234375)"/>
<path d="M0 0 C1.65 0 3.3 0 5 0 C6.95121876 1.95121876 6.46085072 5.51869087 6.625 8.1875 C6.66931152 8.89986816 6.71362305 9.61223633 6.75927734 10.34619141 C7.6682882 27.66342359 7.6682882 27.66342359 5 33 C3.35 32.67 1.7 32.34 0 32 C0 21.44 0 10.88 0 0 Z " fill="#FDFDFD" transform="translate(34,1)"/>
<path d="M0 0 C0.66 0.33 1.32 0.66 2 1 C2 2.98 2 4.96 2 7 C1.01 7.33 0.02 7.66 -1 8 C-0.01 8.99 0.98 9.98 2 11 C1.67 11.99 1.34 12.98 1 14 C0.34 13.34 -0.32 12.68 -1 12 C-1.33 13.65 -1.66 15.3 -2 17 C-2.33 16.34 -2.66 15.68 -3 15 C-6.00259517 14.66781808 -6.00259517 14.66781808 -7.6875 16.5 C-8.120625 16.995 -8.55375 17.49 -9 18 C-11.39489543 17.25675659 -12.70777616 16.52942646 -13.93359375 14.30859375 C-14.67219923 12.55926499 -15.34049685 10.78065851 -16 9 C-15.01 7.68 -14.02 6.36 -13 5 C-10.36 5.33 -7.72 5.66 -5 6 C-4.731875 5.38125 -4.46375 4.7625 -4.1875 4.125 C-3 2 -3 2 0 0 Z " fill="#64B6C1" transform="translate(56,6)"/>
<path d="M0 0 C1.32 0 2.64 0 4 0 C3.67 1.98 3.34 3.96 3 6 C3.598125 6.185625 4.19625 6.37125 4.8125 6.5625 C8.10610133 8.72686659 8.75851019 11.33760506 10 15 C10.1875 17.9375 10.1875 17.9375 10 20 C9.34 20 8.68 20 8 20 C8 18.68 8 17.36 8 16 C7.34 16 6.68 16 6 16 C5.34 13.69 4.68 11.38 4 9 C4 9.33 4 9.66 4 10 C4 10.99 4 11.98 4 13 C3.34 13 2.68 13 2 13 C1.67 14.32 1.34 15.64 1 17 C0.34 13.04 -0.32 9.08 -1 5 C-3.64 4.67 -6.28 4.34 -9 4 C-9 3.34 -9 2.68 -9 2 C-7.6078125 2.3403125 -7.6078125 2.3403125 -6.1875 2.6875 C-5.135625 2.790625 -4.08375 2.89375 -3 3 C-1.35405861 1.60411246 -1.35405861 1.60411246 0 0 Z " fill="#A1BAC0" transform="translate(67,2)"/>
<path d="M0 0 C2.475 0.99 2.475 0.99 5 2 C5 2.99 5 3.98 5 5 C7.10409639 5.02701408 9.20829178 5.04640223 11.3125 5.0625 C12.48425781 5.07410156 13.65601563 5.08570313 14.86328125 5.09765625 C18.03059195 5.14899898 18.03059195 5.14899898 21 4 C21.66 3.01 22.32 2.02 23 1 C23.99 1 24.98 1 26 1 C26 1.66 26 2.32 26 3 C27.98 3.66 29.96 4.32 32 5 C29 6 29 6 26 5.375 C25.01 5.25125 24.02 5.1275 23 5 C21.27056525 6.31267956 21.27056525 6.31267956 20 8 C15.31065463 9.56311512 11.48244475 9.52321579 6.8125 7.875 C3.52456251 5.68304167 1.96240487 3.39646997 0 0 Z " fill="#6AC2D1" transform="translate(49,25)"/>
<path d="M0 0 C2.14681531 0.47474775 4.29243228 0.95491749 6.4375 1.4375 C7.63246094 1.70433594 8.82742187 1.97117187 10.05859375 2.24609375 C13 3 13 3 14 4 C14.04063832 5.66617115 14.042721 7.33388095 14 9 C12.02 9 10.04 9 8 9 C8 8.34 8 7.68 8 7 C6.8553125 6.5978125 6.8553125 6.5978125 5.6875 6.1875 C3.11011382 5.04865495 1.73045136 4.18583329 0 2 C0 1.34 0 0.68 0 0 Z " fill="#20AAB1" transform="translate(72,23)"/>
<path d="M0 0 C1.32 0.33 2.64 0.66 4 1 C4.33 5.29 4.66 9.58 5 14 C4.34 14 3.68 14 3 14 C3 15.65 3 17.3 3 19 C2.67 19 2.34 19 2 19 C1.67 15.37 1.34 11.74 1 8 C-0.65 7.67 -2.3 7.34 -4 7 C-3.67 6.34 -3.34 5.68 -3 5 C-2.01 5 -1.02 5 0 5 C0 3.35 0 1.7 0 0 Z " fill="#1F2036" transform="translate(58,8)"/>
<path d="M0 0 C0.66 0.33 1.32 0.66 2 1 C2 2.98 2 4.96 2 7 C1.01 7.33 0.02 7.66 -1 8 C-0.01 8.99 0.98 9.98 2 11 C1.67 11.99 1.34 12.98 1 14 C0.4225 13.360625 -0.155 12.72125 -0.75 12.0625 C-2.98062401 10.01776132 -4.07436391 9.41794801 -7 9 C-7 8.01 -7 7.02 -7 6 C-6.34 6 -5.68 6 -5 6 C-4.731875 5.38125 -4.46375 4.7625 -4.1875 4.125 C-3 2 -3 2 0 0 Z " fill="#76A7AF" transform="translate(56,6)"/>
<path d="M0 0 C2.33944736 0.28730055 4.6739143 0.61936779 7 1 C6.91621094 1.59167969 6.83242187 2.18335938 6.74609375 2.79296875 C6.19110576 7.09939457 5.76773348 10.75552644 7 15 C6.01 15 5.02 15 4 15 C3.67 11.04 3.34 7.08 3 3 C2.01 2.67 1.02 2.34 0 2 C-0.33 3.32 -0.66 4.64 -1 6 C-1.042721 4.33388095 -1.04063832 2.66617115 -1 1 C-0.67 0.67 -0.34 0.34 0 0 Z " fill="#325565" transform="translate(58,6)"/>
<path d="M0 0 C2.475 0.99 2.475 0.99 5 2 C5 2.99 5 3.98 5 5 C5.99 5 6.98 5 8 5 C8 5.66 8 6.32 8 7 C11.63 7 15.26 7 19 7 C17 9 17 9 13.75 9.3125 C9.62787258 8.96898938 7.43209982 8.28806655 4 6 C1.625 2.8125 1.625 2.8125 0 0 Z " fill="#94CBD1" transform="translate(49,25)"/>
<path d="M0 0 C-0.66 1.65 -1.32 3.3 -2 5 C-4.16874252 4.49396008 -5.99967627 4.00016187 -8 3 C-8 1.68 -8 0.36 -8 -1 C-4.59745511 -2.2151946 -3.06748874 -1.86240388 0 0 Z " fill="#1EA9B0" transform="translate(50,16)"/>
<path d="M0 0 C4.12751449 0.60698743 7.3321148 2.03810791 11 4 C11.04254356 5.99954746 11.04080783 8.00041636 11 10 C10 11 10 11 7.4375 11.0625 C6.633125 11.041875 5.82875 11.02125 5 11 C6.32 10.67 7.64 10.34 9 10 C8.67 8.35 8.34 6.7 8 5 C6.02 4.34 4.04 3.68 2 3 C2 2.34 2 1.68 2 1 C1.34 0.67 0.68 0.34 0 0 Z " fill="#89CCD3" transform="translate(77,22)"/>
<path d="M0 0 C0 2.31 0 4.62 0 7 C-0.33 6.34 -0.66 5.68 -1 5 C-4.00259517 4.66781808 -4.00259517 4.66781808 -5.6875 6.5 C-6.120625 6.995 -6.55375 7.49 -7 8 C-8.9375 7.1875 -8.9375 7.1875 -11 6 C-11.33 5.01 -11.66 4.02 -12 3 C-10.6696875 3.37125 -10.6696875 3.37125 -9.3125 3.75 C-5.88834052 4.35692802 -5.88834052 4.35692802 -3.1875 2.0625 C-1 0 -1 0 0 0 Z " fill="#7EC6CC" transform="translate(54,16)"/>
<path d="M0 0 C3 1 3 1 4.1875 3.25 C4.99938294 5.99791147 5.16260121 8.15447889 5 11 C4.34 11 3.68 11 3 11 C3 9.68 3 8.36 3 7 C2.34 7 1.68 7 1 7 C0.67 4.69 0.34 2.38 0 0 Z " fill="#8BC3CB" transform="translate(72,11)"/>
<path d="M0 0 C1.65 0 3.3 0 5 0 C5.33 2.31 5.66 4.62 6 7 C5.34 7 4.68 7 4 7 C4 8.65 4 10.3 4 12 C3.67 12 3.34 12 3 12 C2.92652344 10.82630859 2.92652344 10.82630859 2.8515625 9.62890625 C2.77679688 8.61699219 2.70203125 7.60507812 2.625 6.5625 C2.55539063 5.55316406 2.48578125 4.54382813 2.4140625 3.50390625 C2.27742188 2.67761719 2.14078125 1.85132812 2 1 C1.34 0.67 0.68 0.34 0 0 Z " fill="#0E132B" transform="translate(57,15)"/>
<path d="M0 0 C1.06671952 3.20015856 0.94845472 4.88544294 0.5625 8.1875 C0.46066406 9.08855469 0.35882813 9.98960938 0.25390625 10.91796875 C0.17011719 11.60503906 0.08632812 12.29210938 0 13 C-1.546875 11.7890625 -1.546875 11.7890625 -3 10 C-2.890625 7.7734375 -2.890625 7.7734375 -2.25 5.375 C-2.04890625 4.57835937 -1.8478125 3.78171875 -1.640625 2.9609375 C-1 1 -1 1 0 0 Z " fill="#0E162E" transform="translate(66,6)"/>
<path d="M0 0 C0.66 0.99 1.32 1.98 2 3 C-1.90028225 5.60018816 -5.47434569 5.15085514 -10 5 C-7.66785852 3.79371992 -5.50357861 2.8345262 -3 2 C-2.34 2.33 -1.68 2.66 -1 3 C-0.67 2.01 -0.34 1.02 0 0 Z " fill="#31949E" transform="translate(69,26)"/>
<path d="M0 0 C2.3125 -0.25 2.3125 -0.25 5 0 C6.875 1.8125 6.875 1.8125 8 4 C7.67 4.99 7.34 5.98 7 7 C6.401875 6.360625 5.80375 5.72125 5.1875 5.0625 C3.09189663 2.79689611 3.09189663 2.79689611 0 2 C0 1.34 0 0.68 0 0 Z " fill="#8F838C" transform="translate(50,13)"/>
</svg>
